<svg id="svg" xmlns="http://www.w3.org/2000/svg" xmlns:xlink="http://www.w3.org/1999/xlink" width="400" height="400" viewBox="0, 0, 400,400"><g id="svgg"><path id="path0" d="M190.286 138.713 L 190.286 244.283 140.709 194.709 L 91.133 145.135 84.000 152.286 L 76.867 159.436 137.909 220.480 C 171.482 254.054,199.294 281.524,199.714 281.524 C 200.134 281.524,228.078 253.919,261.811 220.181 L 323.143 158.838 316.120 151.872 L 309.097 144.906 259.405 194.595 L 209.714 244.283 209.714 138.713 L 209.714 33.143 200.000 33.143 L 190.286 33.143 190.286 138.713 M54.539 309.308 C 54.383 309.714,54.327 314.150,54.413 319.166 L 54.571 328.286 200.000 328.286 L 345.429 328.286 345.429 318.571 L 345.429 308.857 200.125 308.713 C 81.783 308.596,54.770 308.706,54.539 309.308 " stroke="none" fill="#000000" fill-rule="evenodd"></path></g></svg>