<svg id="svg" version="1.1" xmlns="http://www.w3.org/2000/svg" xmlns:xlink="http://www.w3.org/1999/xlink" width="400" height="289.4217207334274" viewBox="0, 0, 400,289.4217207334274"><g id="svgg"><path id="path0" d="M213.965 5.932 C 213.681 6.256,213.603 12.975,213.603 37.440 L 213.603 68.537 217.438 68.730 C 219.548 68.836,223.813 68.882,226.918 68.832 L 232.562 68.741 232.635 37.535 C 232.698 10.761,232.650 6.270,232.294 5.914 C 231.682 5.302,214.505 5.319,213.965 5.932 M188.495 68.225 C 188.933 68.291,189.649 68.291,190.087 68.225 C 190.525 68.158,190.166 68.104,189.291 68.104 C 188.415 68.104,188.057 68.158,188.495 68.225 M123.878 168.307 L 123.878 183.502 133.140 183.502 L 142.402 183.502 142.402 168.307 L 142.402 153.111 133.140 153.111 L 123.878 153.111 123.878 168.307 M275.387 162.154 C 275.563 169.735,275.671 171.283,276.049 171.708 C 276.470 172.179,277.677 172.214,293.537 172.214 L 310.572 172.214 310.496 162.735 L 310.420 153.256 292.798 153.182 L 275.176 153.107 275.387 162.154 M319.309 153.455 C 318.938 153.826,318.770 181.807,319.134 182.755 C 319.289 183.159,320.403 183.213,328.688 183.213 L 338.066 183.213 337.991 168.234 L 337.916 153.256 328.788 153.180 C 321.931 153.122,319.573 153.191,319.309 153.455 " stroke="none" fill="#deb065" fill-rule="evenodd"></path><path id="path1" d="M84.690 4.583 C 84.608 4.715,84.926 4.824,85.396 4.824 C 85.867 4.824,86.252 4.715,86.252 4.583 C 86.252 4.268,84.884 4.268,84.690 4.583 M248.465 5.872 C 248.093 6.299,248.348 127.171,248.721 127.545 C 249.098 127.922,265.872 128.015,266.566 127.643 C 267.148 127.332,267.149 127.175,267.149 66.415 L 267.149 5.499 257.959 5.510 C 251.134 5.518,248.691 5.612,248.465 5.872 M283.647 30.147 L 283.647 54.794 292.662 54.595 C 297.620 54.485,301.788 54.327,301.924 54.243 C 302.060 54.159,302.171 43.157,302.171 29.795 L 302.171 5.499 292.909 5.499 L 283.647 5.499 283.647 30.147 M342.258 105.499 C 342.258 117.677,342.355 127.641,342.475 127.641 C 342.594 127.641,342.692 117.677,342.692 105.499 C 342.692 93.321,342.594 83.357,342.475 83.357 C 342.355 83.357,342.258 93.321,342.258 105.499 M169.725 106.604 C 168.186 108.205,165.774 109.696,164.722 109.696 C 164.385 109.696,164.110 109.826,164.110 109.986 C 164.110 110.145,163.915 110.275,163.676 110.275 C 163.105 110.275,163.107 110.400,163.995 125.832 L 164.166 128.799 165.585 128.799 C 166.366 128.799,167.004 128.669,167.004 128.509 C 167.004 128.350,167.535 128.220,168.183 128.220 C 170.211 128.220,176.882 125.619,178.178 124.323 C 178.423 124.079,178.725 123.878,178.849 123.878 C 178.973 123.878,179.484 123.488,179.983 123.010 C 180.483 122.533,181.023 122.142,181.184 122.142 C 181.345 122.142,181.476 122.012,181.476 121.852 C 181.476 121.693,181.737 121.563,182.055 121.563 C 182.373 121.563,182.634 121.491,182.634 121.404 C 182.634 120.869,181.619 119.455,180.772 118.809 C 180.225 118.391,178.955 116.996,177.950 115.707 C 176.944 114.417,175.453 112.566,174.637 111.592 C 173.820 110.617,172.642 108.987,172.020 107.969 C 170.719 105.842,170.552 105.743,169.725 106.604 M96.093 141.679 C 96.093 141.918,96.223 142.113,96.382 142.113 C 96.541 142.113,96.671 141.918,96.671 141.679 C 96.671 141.440,96.541 141.245,96.382 141.245 C 96.223 141.245,96.093 141.440,96.093 141.679 M89.436 214.038 L 89.436 274.964 96.978 274.964 C 101.933 274.964,104.459 275.063,104.342 275.253 C 104.240 275.418,104.489 275.543,104.920 275.543 C 105.352 275.543,105.601 275.418,105.499 275.253 C 105.390 275.077,105.809 274.966,106.568 274.968 C 107.527 274.972,107.715 275.043,107.381 275.280 C 106.995 275.553,106.995 275.574,107.381 275.468 C 107.764 275.363,107.823 268.272,107.888 214.231 L 107.961 153.111 98.698 153.111 L 89.436 153.111 89.436 214.038 M164.973 153.850 C 164.801 154.303,164.689 160.464,164.689 169.509 L 164.689 184.422 170.839 184.246 C 174.222 184.149,178.456 183.994,180.249 183.902 L 183.507 183.734 183.432 168.495 L 183.357 153.256 174.307 153.180 L 165.257 153.103 164.973 153.850 M360.347 168.802 L 360.347 184.461 368.898 184.257 C 373.601 184.145,377.639 183.981,377.871 183.892 C 378.217 183.759,378.292 182.856,378.292 178.840 C 378.292 174.724,378.360 173.951,378.719 173.951 C 379.396 173.951,379.514 154.127,378.840 153.517 C 378.453 153.167,376.862 153.101,369.361 153.120 L 360.347 153.142 360.347 168.802 M257.602 213.965 L 257.598 224.023 260.709 224.026 C 262.420 224.028,266.719 224.113,270.260 224.215 C 275.039 224.353,276.700 224.315,276.700 224.067 C 276.700 223.820,280.082 223.734,289.725 223.734 L 302.750 223.734 302.750 214.472 L 302.750 205.210 289.725 205.210 C 279.498 205.210,276.700 205.132,276.701 204.848 C 276.701 204.564,274.688 204.504,267.388 204.567 C 260.077 204.630,258.025 204.567,257.841 204.277 C 257.712 204.074,257.605 208.433,257.602 213.965 M194.404 211.814 C 193.730 212.559,193.667 229.308,194.335 229.977 C 194.678 230.320,196.526 230.391,205.182 230.391 L 215.615 230.391 215.448 229.558 C 215.150 228.064,216.541 228.230,217.979 229.860 C 218.651 230.622,246.422 230.692,246.713 229.933 C 247.198 228.668,246.896 212.180,246.382 211.917 C 245.235 211.328,194.934 211.229,194.404 211.814 M29.233 216.224 C 25.014 216.333,21.075 216.439,20.478 216.460 L 19.392 216.498 19.392 245.562 C 19.392 261.548,19.471 274.833,19.568 275.085 C 19.835 275.780,37.763 275.780,38.030 275.085 C 38.126 274.833,38.205 265.716,38.205 254.824 L 38.205 235.022 39.468 235.022 L 40.730 235.022 40.912 233.502 C 41.013 232.666,41.099 229.182,41.104 225.760 C 41.109 222.337,41.215 219.081,41.339 218.524 C 41.733 216.746,41.541 216.498,39.776 216.498 C 38.912 216.498,38.205 216.368,38.205 216.208 C 38.205 216.049,37.912 215.943,37.554 215.973 C 37.196 216.002,33.452 216.115,29.233 216.224 M378.871 234.136 C 378.871 234.464,379.001 234.732,379.161 234.732 C 379.320 234.732,379.450 234.545,379.450 234.315 C 379.450 234.086,379.320 233.818,379.161 233.719 C 379.001 233.621,378.871 233.809,378.871 234.136 M379.231 240.425 C 379.141 247.548,379.545 246.889,375.269 246.889 C 373.322 246.889,369.168 246.974,366.038 247.079 L 360.347 247.270 360.347 261.059 C 360.347 271.398,360.434 274.935,360.695 275.195 C 361.375 275.875,378.782 275.672,379.152 274.979 C 379.355 274.600,379.429 267.948,379.378 254.646 C 379.336 243.773,379.270 237.374,379.231 240.425 M164.698 260.637 C 164.705 271.730,164.785 274.632,165.092 275.036 C 165.443 275.499,166.245 275.543,174.489 275.543 L 183.502 275.543 183.502 261.223 L 183.502 246.904 174.095 246.824 L 164.689 246.744 164.698 260.637 " stroke="none" fill="#972b50" fill-rule="evenodd"></path><path id="path2" d="M87.336 4.512 C 87.217 4.631,87.120 8.858,87.120 13.907 L 87.120 23.087 87.771 23.262 C 88.130 23.358,88.911 23.438,89.508 23.440 C 90.105 23.443,90.593 23.575,90.593 23.734 C 90.593 23.893,90.886 24.026,91.245 24.030 C 91.603 24.033,92.221 24.291,92.619 24.602 C 93.017 24.913,93.460 25.171,93.604 25.174 C 94.409 25.194,96.678 28.490,97.494 30.825 C 97.697 31.403,97.847 43.480,97.945 67.004 C 98.101 104.352,98.095 104.543,96.832 105.422 C 96.664 105.539,96.629 105.637,96.754 105.640 C 97.071 105.646,96.422 106.802,96.102 106.802 C 95.959 106.802,95.791 106.444,95.730 106.006 C 95.668 105.568,95.591 110.190,95.559 116.277 C 95.527 122.364,95.583 127.671,95.683 128.071 C 95.860 128.776,96.961 129.153,96.961 128.509 C 96.961 128.350,97.268 128.220,97.642 128.220 C 98.636 128.220,103.880 125.485,105.315 124.218 C 109.222 120.770,111.835 117.670,113.409 114.616 C 113.860 113.741,114.371 112.764,114.544 112.446 C 114.716 112.127,115.074 111.085,115.339 110.130 C 115.604 109.175,115.937 108.068,116.079 107.670 C 116.682 105.983,116.753 104.609,116.857 92.557 L 116.965 79.904 116.235 79.720 C 114.842 79.371,115.006 77.875,116.439 77.863 C 117.081 77.857,117.078 29.315,116.435 27.641 C 116.252 27.164,115.806 25.796,115.444 24.602 C 114.818 22.539,114.004 20.731,113.431 20.130 C 113.287 19.979,113.169 19.621,113.169 19.334 C 113.169 19.048,113.039 18.813,112.880 18.813 C 112.721 18.813,112.590 18.638,112.590 18.424 C 112.590 18.210,112.330 17.799,112.012 17.511 C 111.693 17.223,111.433 16.868,111.433 16.724 C 111.433 16.579,110.781 15.826,109.986 15.051 C 109.190 14.275,108.538 13.437,108.538 13.188 C 108.538 12.939,108.333 12.735,108.082 12.735 C 107.830 12.735,107.146 12.241,106.562 11.636 C 105.977 11.032,104.848 10.095,104.052 9.555 C 103.256 9.014,102.562 8.467,102.508 8.338 C 102.455 8.209,102.162 8.104,101.857 8.104 C 101.552 8.104,101.302 7.974,101.302 7.815 C 101.302 7.656,101.042 7.525,100.724 7.525 C 100.405 7.525,100.145 7.395,100.145 7.236 C 100.145 7.077,99.910 6.946,99.624 6.946 C 99.337 6.946,98.979 6.828,98.828 6.684 C 98.475 6.347,96.565 5.788,95.080 5.588 C 94.443 5.502,93.856 5.328,93.776 5.202 C 93.695 5.075,92.653 4.907,91.460 4.829 C 90.267 4.751,88.899 4.599,88.421 4.492 C 87.942 4.384,87.454 4.394,87.336 4.512 M131.581 5.953 C 131.378 6.482,131.331 99.020,131.534 99.605 C 131.609 99.822,131.733 101.042,131.810 102.315 C 132.007 105.567,132.286 107.381,132.591 107.381 C 132.734 107.381,132.851 107.771,132.851 108.249 C 132.851 108.726,132.981 109.117,133.140 109.117 C 133.300 109.117,133.430 109.435,133.430 109.824 C 133.430 110.212,133.560 110.611,133.719 110.709 C 133.878 110.808,134.009 111.141,134.009 111.450 C 134.009 111.759,134.139 112.012,134.298 112.012 C 134.457 112.012,134.588 112.272,134.588 112.590 C 134.588 112.909,134.718 113.169,134.877 113.169 C 135.036 113.169,135.166 113.430,135.166 113.748 C 135.166 114.067,135.297 114.327,135.456 114.327 C 135.615 114.327,135.745 114.522,135.745 114.761 C 135.745 115.000,135.854 115.195,135.986 115.195 C 136.118 115.195,136.411 115.553,136.637 115.990 C 136.863 116.427,137.276 117.046,137.554 117.365 C 137.832 117.684,138.785 118.824,139.671 119.899 C 140.556 120.973,141.389 121.852,141.520 121.852 C 141.652 121.852,142.262 122.305,142.877 122.859 C 143.491 123.412,144.157 123.868,144.356 123.872 C 144.555 123.875,144.719 123.976,144.720 124.096 C 144.721 124.215,145.014 124.459,145.371 124.638 C 149.294 126.602,150.428 127.136,150.846 127.217 C 151.116 127.269,151.600 127.452,151.922 127.624 C 152.243 127.796,153.297 128.019,154.265 128.120 C 155.232 128.222,156.093 128.416,156.177 128.552 C 156.261 128.688,157.962 128.799,159.958 128.799 L 163.587 128.799 163.431 126.122 C 163.346 124.649,163.149 121.100,162.994 118.234 C 162.839 115.369,162.619 112.406,162.504 111.650 L 162.295 110.275 160.636 110.275 C 157.397 110.275,153.113 107.745,151.688 104.991 C 151.462 104.554,151.169 104.197,151.036 104.197 C 150.904 104.197,150.796 103.806,150.796 103.329 C 150.796 102.851,150.666 102.460,150.507 102.460 C 150.315 102.460,150.217 86.245,150.217 54.393 C 150.217 13.121,150.159 6.268,149.804 5.913 C 149.155 5.264,131.831 5.302,131.581 5.953 M322.431 6.078 C 322.431 6.397,322.301 6.657,322.142 6.657 C 321.983 6.657,321.852 6.975,321.852 7.364 C 321.852 7.752,321.722 8.151,321.563 8.249 C 321.404 8.347,321.274 8.803,321.274 9.262 C 321.274 9.721,321.143 10.177,320.984 10.275 C 320.825 10.373,320.695 10.837,320.695 11.305 C 320.695 11.773,320.564 12.156,320.405 12.156 C 320.246 12.156,320.116 12.539,320.116 13.008 C 320.116 13.476,319.986 13.939,319.826 14.038 C 319.667 14.136,319.537 14.665,319.537 15.212 C 319.537 15.760,319.407 16.208,319.247 16.208 C 319.088 16.208,318.958 16.577,318.958 17.028 C 318.958 17.479,318.860 17.946,318.741 18.066 C 318.622 18.185,318.523 18.370,318.523 18.476 C 318.522 18.729,317.811 21.092,317.482 21.936 C 317.340 22.300,317.140 23.309,317.038 24.179 C 316.936 25.048,316.740 25.760,316.603 25.760 C 316.465 25.760,316.353 26.151,316.353 26.628 C 316.353 27.106,316.223 27.496,316.064 27.496 C 315.904 27.496,315.774 27.887,315.774 28.365 C 315.774 28.842,315.644 29.233,315.485 29.233 C 315.326 29.233,315.195 29.689,315.195 30.246 C 315.195 30.803,315.065 31.259,314.906 31.259 C 314.747 31.259,314.616 31.723,314.616 32.289 C 314.616 32.902,314.499 33.247,314.327 33.140 C 314.152 33.032,314.038 33.427,314.038 34.136 C 314.038 34.782,313.907 35.311,313.748 35.311 C 313.589 35.311,313.459 35.702,313.459 36.179 C 313.459 36.657,313.329 37.048,313.169 37.048 C 313.010 37.048,312.880 37.332,312.880 37.678 C 312.880 38.250,312.579 39.385,312.012 40.955 C 311.444 42.525,311.143 43.660,311.143 44.232 C 311.143 44.579,311.027 44.863,310.886 44.863 C 310.744 44.863,310.555 45.286,310.465 45.803 C 310.106 47.879,309.911 48.625,309.726 48.625 C 309.620 48.625,309.506 48.983,309.473 49.421 C 309.440 49.859,309.300 50.478,309.163 50.796 C 308.121 53.219,308.224 53.546,310.034 53.546 C 310.512 53.546,311.706 53.742,312.688 53.983 C 313.669 54.224,316.881 55.020,319.826 55.752 C 322.771 56.485,325.457 57.147,325.795 57.223 C 326.288 57.334,326.439 57.199,326.560 56.539 C 326.642 56.087,326.985 54.805,327.320 53.691 C 327.656 52.577,327.931 51.315,327.931 50.886 C 327.931 50.457,328.061 50.026,328.220 49.928 C 328.379 49.829,328.509 49.366,328.509 48.898 C 328.509 48.429,328.640 48.046,328.799 48.046 C 328.958 48.046,329.088 47.719,329.088 47.319 C 329.088 46.919,329.209 46.365,329.357 46.089 C 329.757 45.338,330.033 44.515,330.154 43.705 C 330.258 43.009,330.615 41.889,331.124 40.666 C 331.256 40.347,331.438 39.664,331.529 39.146 C 331.893 37.065,332.056 36.480,332.243 36.596 C 332.351 36.662,332.467 36.375,332.502 35.958 C 332.536 35.540,332.668 35.126,332.794 35.038 C 332.920 34.949,333.054 34.421,333.091 33.864 C 333.128 33.307,333.285 32.808,333.439 32.754 C 333.593 32.701,333.719 32.278,333.719 31.814 C 333.719 31.349,333.849 30.970,334.009 30.970 C 334.168 30.970,334.298 30.521,334.298 29.974 C 334.298 29.426,334.428 28.897,334.588 28.799 C 334.747 28.700,334.877 28.324,334.877 27.962 C 334.877 27.600,334.975 27.206,335.094 27.086 C 335.213 26.967,335.317 26.782,335.324 26.676 C 335.360 26.131,336.176 23.179,336.518 22.360 C 336.733 21.844,336.908 21.355,336.906 21.275 C 336.905 21.195,336.913 21.096,336.925 21.056 C 336.936 21.017,337.002 20.658,337.070 20.260 C 337.138 19.863,337.308 19.276,337.448 18.958 C 337.892 17.944,339.219 13.078,339.219 12.461 C 339.219 12.134,339.349 11.867,339.508 11.867 C 339.667 11.867,339.797 11.419,339.797 10.871 C 339.797 10.323,339.928 9.794,340.087 9.696 C 340.246 9.598,340.376 9.207,340.376 8.828 C 340.376 8.449,340.507 8.058,340.666 7.959 C 340.825 7.861,340.955 7.267,340.955 6.640 L 340.955 5.499 331.693 5.499 C 322.624 5.499,322.431 5.511,322.431 6.078 M57.308 88.984 C 57.308 98.447,57.420 105.679,57.567 105.770 C 57.709 105.858,57.900 106.419,57.990 107.017 C 58.381 109.608,58.545 110.275,58.787 110.275 C 58.929 110.275,59.045 110.528,59.045 110.837 C 59.045 111.146,59.175 111.479,59.334 111.577 C 59.493 111.676,59.624 112.074,59.624 112.463 C 59.624 112.851,59.754 113.169,59.913 113.169 C 60.072 113.169,60.203 113.430,60.203 113.748 C 60.203 114.067,60.333 114.327,60.492 114.327 C 60.651 114.327,60.781 114.522,60.781 114.761 C 60.781 115.000,60.912 115.195,61.071 115.195 C 61.230 115.195,61.360 115.396,61.360 115.641 C 61.360 116.063,61.934 116.981,63.242 118.650 C 64.609 120.396,68.588 124.138,70.188 125.184 C 71.143 125.808,72.020 126.453,72.137 126.618 C 72.254 126.783,72.352 126.824,72.354 126.709 C 72.357 126.595,73.104 126.888,74.015 127.361 C 74.926 127.833,75.957 128.220,76.307 128.220 C 76.656 128.220,77.000 128.383,77.071 128.582 C 77.142 128.781,77.316 128.835,77.457 128.702 C 77.745 128.431,77.610 106.162,77.319 105.933 C 76.937 105.633,76.411 104.473,76.411 103.928 C 76.411 103.617,76.281 103.282,76.122 103.184 C 75.962 103.085,75.832 101.840,75.832 100.417 C 75.832 98.885,75.714 97.829,75.543 97.829 C 75.377 97.829,75.253 96.961,75.253 95.803 C 75.253 94.645,75.377 93.777,75.543 93.777 C 75.730 93.777,75.832 90.014,75.832 83.068 L 75.832 72.359 66.570 72.359 L 57.308 72.359 57.308 88.984 M283.647 100.062 C 283.647 126.864,283.657 127.337,284.215 127.635 C 285.145 128.133,301.471 127.898,301.363 127.389 C 301.309 127.136,301.441 127.053,301.725 127.162 C 302.125 127.316,302.171 124.514,302.171 100.143 L 302.171 72.953 292.909 72.873 L 283.647 72.793 283.647 100.062 M95.609 102.315 C 95.610 103.430,95.662 103.850,95.725 103.250 C 95.788 102.649,95.787 101.737,95.723 101.224 C 95.659 100.710,95.607 101.201,95.609 102.315 M19.392 194.966 L 19.392 215.981 28.292 215.811 C 33.187 215.717,37.420 215.610,37.699 215.573 C 38.176 215.509,38.205 214.297,38.205 194.728 L 38.205 173.951 28.799 173.951 L 19.392 173.951 19.392 194.966 M319.194 189.363 C 319.165 192.587,319.173 195.615,319.212 196.093 C 319.342 197.700,319.774 200.714,320.052 201.954 C 320.203 202.630,320.247 203.186,320.149 203.188 C 320.051 203.191,320.102 203.288,320.262 203.405 C 320.607 203.658,321.274 205.479,321.274 206.171 C 321.274 206.438,321.404 206.657,321.563 206.657 C 321.722 206.657,321.852 206.918,321.852 207.236 C 321.852 207.554,321.950 207.816,322.069 207.817 C 322.294 207.819,323.010 209.192,323.010 209.621 C 323.010 209.755,323.271 210.145,323.589 210.486 C 323.907 210.828,324.168 211.279,324.168 211.487 C 324.168 211.696,324.298 211.867,324.457 211.867 C 324.616 211.867,324.747 212.070,324.747 212.318 C 324.747 212.566,324.877 212.689,325.036 212.590 C 325.195 212.492,325.326 212.604,325.326 212.839 C 325.326 213.074,325.423 213.310,325.543 213.363 C 326.539 213.810,327.143 215.058,326.603 215.555 C 326.299 215.835,325.598 216.650,325.047 217.366 C 324.496 218.083,323.942 218.712,323.817 218.765 C 323.692 218.818,323.589 219.046,323.589 219.272 C 323.589 219.497,323.459 219.682,323.300 219.682 C 323.140 219.682,323.010 219.942,323.010 220.260 C 323.010 220.579,322.880 220.839,322.721 220.839 C 322.562 220.839,322.431 221.100,322.431 221.418 C 322.431 221.737,322.301 221.997,322.142 221.997 C 321.983 221.997,321.852 222.258,321.852 222.576 C 321.852 222.894,321.751 223.155,321.626 223.155 C 321.502 223.155,321.222 223.774,321.005 224.530 C 320.788 225.286,320.515 226.035,320.397 226.194 C 320.188 226.479,320.098 226.934,319.507 230.680 C 319.131 233.072,319.102 234.060,319.182 241.896 L 319.247 248.336 328.633 248.336 L 338.019 248.336 338.125 240.593 C 338.232 232.889,338.582 230.304,339.580 229.860 C 339.700 229.807,339.797 229.592,339.797 229.383 C 339.797 228.865,341.705 226.992,342.809 226.427 C 343.302 226.175,343.770 225.883,343.849 225.780 C 344.275 225.224,346.857 224.757,349.485 224.761 C 351.943 224.764,352.446 224.685,352.768 224.246 C 352.977 223.961,354.544 223.041,356.250 222.202 C 357.957 221.363,359.817 220.322,360.384 219.889 C 360.951 219.457,361.523 219.103,361.655 219.103 C 362.184 219.103,366.988 216.581,368.969 215.263 C 370.129 214.492,371.308 213.899,371.589 213.947 C 372.115 214.036,373.661 212.709,373.661 212.169 C 373.661 212.003,373.792 211.867,373.951 211.867 C 374.110 211.867,374.240 211.671,374.240 211.433 C 374.240 211.194,374.338 210.998,374.457 210.998 C 374.577 210.997,375.000 210.281,375.398 209.407 C 375.796 208.532,376.219 207.816,376.339 207.816 C 376.458 207.815,376.556 207.605,376.556 207.348 C 376.556 207.091,376.802 206.407,377.102 205.828 C 377.403 205.249,377.802 204.190,377.990 203.473 C 378.178 202.757,378.453 201.771,378.601 201.282 C 378.750 200.793,378.871 199.726,378.871 198.911 C 378.871 198.096,378.996 197.352,379.148 197.258 C 379.314 197.156,379.401 194.613,379.365 190.946 L 379.305 184.805 369.826 184.770 L 360.347 184.736 360.347 190.921 C 360.347 194.851,360.242 197.106,360.058 197.106 C 359.899 197.106,359.768 197.419,359.768 197.802 C 359.768 200.186,354.854 205.210,352.522 205.210 C 352.228 205.210,351.907 205.340,351.809 205.499 C 351.711 205.658,350.473 205.789,349.059 205.789 C 347.645 205.789,346.408 205.658,346.310 205.499 C 346.211 205.340,345.748 205.210,345.280 205.210 C 344.811 205.210,344.428 205.080,344.428 204.920 C 344.428 204.761,344.229 204.631,343.985 204.631 C 343.740 204.631,343.094 204.208,342.547 203.690 C 342.000 203.173,341.416 202.619,341.247 202.460 C 340.212 201.480,339.218 200.243,339.217 199.930 C 339.216 199.730,339.017 199.186,338.775 198.723 C 338.174 197.570,338.130 196.996,338.093 189.797 L 338.061 183.502 328.654 183.502 L 319.247 183.502 319.194 189.363 M123.989 191.389 C 124.134 199.413,124.342 202.315,124.774 202.315 C 124.918 202.315,125.036 202.643,125.036 203.043 C 125.036 203.443,125.166 204.029,125.326 204.345 C 125.485 204.662,125.745 205.179,125.904 205.495 C 126.064 205.812,126.194 206.333,126.194 206.653 C 126.194 206.974,126.324 207.236,126.483 207.236 C 126.643 207.236,126.773 207.496,126.773 207.815 C 126.773 208.133,126.903 208.394,127.062 208.394 C 127.221 208.394,127.352 208.654,127.352 208.973 C 127.352 209.291,127.450 209.551,127.570 209.551 C 127.691 209.551,127.956 209.927,128.159 210.386 C 128.486 211.126,128.826 211.609,129.963 212.952 C 130.131 213.151,130.181 213.314,130.074 213.314 C 129.966 213.314,130.223 213.585,130.644 213.916 C 131.065 214.247,131.335 214.638,131.245 214.784 C 131.154 214.931,131.228 215.051,131.410 215.051 C 131.591 215.051,131.213 215.572,130.570 216.208 C 129.927 216.845,129.493 217.368,129.606 217.371 C 129.719 217.373,129.682 217.471,129.522 217.588 C 129.075 217.916,127.931 219.622,127.931 219.959 C 127.931 220.125,127.800 220.260,127.641 220.260 C 127.482 220.260,127.352 220.521,127.352 220.839 C 127.352 221.158,127.221 221.418,127.062 221.418 C 126.903 221.418,126.773 221.679,126.773 221.997 C 126.773 222.315,126.643 222.576,126.483 222.576 C 126.324 222.576,126.194 222.836,126.194 223.155 C 126.194 223.473,126.064 223.734,125.904 223.734 C 125.745 223.734,125.615 224.124,125.615 224.602 C 125.615 225.080,125.485 225.470,125.326 225.470 C 125.166 225.470,125.036 225.853,125.036 226.322 C 125.036 226.790,124.906 227.253,124.747 227.352 C 124.588 227.450,124.457 228.109,124.457 228.816 C 124.457 229.523,124.327 230.101,124.168 230.101 C 123.981 230.101,123.878 233.189,123.878 238.784 L 123.878 247.467 126.581 247.467 C 128.068 247.467,132.236 247.382,135.843 247.277 L 142.402 247.086 142.402 240.347 C 142.402 236.167,142.512 233.541,142.692 233.430 C 142.851 233.331,142.981 232.941,142.981 232.562 C 142.981 232.182,143.111 231.792,143.271 231.693 C 143.430 231.595,143.560 231.281,143.560 230.997 C 143.560 230.712,143.817 230.183,144.130 229.822 C 144.444 229.460,144.772 228.940,144.859 228.666 C 144.946 228.392,145.340 227.995,145.736 227.783 C 146.131 227.572,146.454 227.292,146.454 227.162 C 146.454 226.220,150.525 224.760,153.172 224.752 C 154.789 224.748,155.135 224.664,155.136 224.276 C 155.138 223.555,155.846 223.119,157.671 222.713 C 162.138 221.720,170.573 217.670,173.368 215.176 C 174.955 213.760,176.266 213.167,176.266 213.866 C 176.266 214.010,176.527 214.060,176.845 213.977 C 177.164 213.894,177.424 213.685,177.424 213.513 C 177.424 213.341,177.737 212.868,178.119 212.462 C 178.738 211.802,182.055 205.614,182.055 205.118 C 182.055 205.009,181.860 204.920,181.621 204.920 C 180.888 204.920,181.133 203.947,182.057 203.184 C 183.284 202.171,183.498 200.479,183.500 191.823 L 183.502 184.660 174.133 184.660 L 164.763 184.660 164.761 189.219 C 164.757 195.960,164.292 199.711,163.460 199.711 C 163.340 199.711,163.242 199.852,163.242 200.025 C 163.242 200.609,161.074 203.466,160.628 203.470 C 160.385 203.472,159.998 203.734,159.768 204.052 C 159.539 204.370,159.119 204.631,158.836 204.631 C 158.553 204.631,158.321 204.761,158.321 204.920 C 158.321 205.080,157.931 205.210,157.453 205.210 C 156.975 205.210,156.585 205.340,156.585 205.499 C 156.585 205.673,155.427 205.789,153.690 205.789 C 151.954 205.789,150.796 205.673,150.796 205.499 C 150.796 205.340,150.405 205.210,149.928 205.210 C 149.450 205.210,149.059 205.080,149.059 204.920 C 149.059 204.761,148.799 204.631,148.480 204.631 C 148.162 204.631,147.902 204.501,147.902 204.342 C 147.902 204.182,147.768 204.052,147.605 204.052 C 147.244 204.052,144.718 201.565,144.718 201.210 C 144.718 201.072,144.457 200.722,144.139 200.434 C 143.821 200.146,143.560 199.670,143.560 199.376 C 143.560 199.083,143.430 198.842,143.271 198.842 C 143.111 198.842,142.981 198.459,142.981 197.991 C 142.981 197.523,142.851 197.059,142.692 196.961 C 142.513 196.850,142.402 194.305,142.402 190.287 L 142.402 183.792 133.127 183.792 L 123.851 183.792 123.989 191.389 M257.887 249.468 L 257.887 274.385 263.787 274.385 C 269.409 274.385,271.939 274.708,271.302 275.345 C 271.194 275.454,272.152 275.543,273.433 275.543 C 275.059 275.543,275.861 275.422,276.092 275.144 C 276.376 274.802,276.616 225.251,276.335 225.021 C 276.297 224.990,272.131 224.872,267.077 224.758 L 257.887 224.552 257.887 249.468 " stroke="none" fill="#29a554" fill-rule="evenodd"></path><path id="path3" d="M82.851 4.854 C 81.538 4.904,80.463 5.069,80.463 5.222 C 80.463 5.374,79.964 5.499,79.354 5.499 C 78.743 5.499,78.146 5.597,78.027 5.716 C 77.908 5.836,77.723 5.941,77.617 5.950 C 76.718 6.026,75.187 6.560,74.168 7.154 C 73.491 7.548,72.936 7.760,72.933 7.625 C 72.931 7.491,72.832 7.533,72.714 7.719 C 72.595 7.905,72.304 8.101,72.067 8.153 C 71.829 8.206,71.432 8.469,71.183 8.737 C 70.934 9.006,70.549 9.267,70.328 9.316 C 70.106 9.366,69.618 9.702,69.242 10.063 C 68.866 10.425,68.417 10.632,68.243 10.525 C 68.055 10.409,68.011 10.464,68.134 10.664 C 68.248 10.848,68.214 10.999,68.060 10.999 C 67.684 10.999,64.255 14.388,64.255 14.759 C 64.255 14.920,64.038 15.051,63.772 15.051 C 63.507 15.051,63.371 15.131,63.469 15.230 C 63.568 15.328,63.492 15.584,63.300 15.799 C 62.420 16.784,62.222 17.077,62.434 17.081 C 62.560 17.084,62.533 17.181,62.373 17.298 C 61.949 17.610,60.781 19.325,60.781 19.637 C 60.781 20.137,60.002 21.411,59.812 21.221 C 59.709 21.117,59.624 21.315,59.624 21.659 C 59.624 22.004,59.522 22.287,59.397 22.287 C 59.273 22.287,59.142 22.645,59.105 23.082 C 59.069 23.520,58.911 23.922,58.753 23.975 C 58.595 24.028,58.466 24.451,58.466 24.916 C 58.466 25.380,58.360 25.760,58.231 25.760 C 58.101 25.760,57.964 26.378,57.926 27.135 C 57.887 27.891,57.733 28.553,57.582 28.606 C 57.413 28.665,57.308 37.027,57.308 50.430 L 57.308 72.157 60.392 71.969 C 62.089 71.865,66.256 71.780,69.654 71.780 L 75.832 71.780 75.832 51.520 C 75.832 38.205,75.931 31.259,76.122 31.259 C 76.281 31.259,76.411 30.868,76.411 30.391 C 76.411 29.913,76.541 29.522,76.700 29.522 C 76.860 29.522,76.990 29.324,76.990 29.082 C 76.990 28.489,80.853 24.602,81.442 24.602 C 81.700 24.602,81.910 24.472,81.910 24.313 C 81.910 24.153,82.228 24.023,82.617 24.023 C 83.005 24.023,83.404 23.893,83.502 23.734 C 83.601 23.575,84.162 23.443,84.749 23.440 C 85.337 23.438,86.116 23.356,86.481 23.259 L 87.144 23.081 87.059 14.169 C 87.013 9.268,86.910 5.200,86.831 5.130 C 86.528 4.863,85.156 4.768,82.851 4.854 M172.855 5.843 C 172.456 6.242,172.324 68.742,172.723 68.495 C 172.843 68.420,177.141 68.315,182.274 68.261 L 191.606 68.162 191.602 37.627 C 191.599 13.594,191.520 6.937,191.232 6.368 L 190.866 5.644 182.036 5.568 C 175.411 5.510,173.119 5.579,172.855 5.843 M308.348 53.705 C 308.252 53.954,306.432 54.116,302.045 54.265 C 298.652 54.381,295.436 54.518,294.899 54.571 C 294.361 54.623,291.610 54.675,288.784 54.685 L 283.647 54.703 283.647 63.531 L 283.647 72.359 292.747 72.359 C 298.502 72.359,301.913 72.465,302.026 72.648 C 302.137 72.827,304.677 72.938,308.683 72.938 C 312.690 72.938,315.229 73.048,315.340 73.227 C 315.438 73.386,315.839 73.517,316.229 73.517 C 317.034 73.517,318.005 74.000,318.699 74.747 C 318.959 75.025,319.270 75.253,319.392 75.253 C 319.514 75.253,319.867 75.546,320.176 75.904 C 320.485 76.263,321.119 76.976,321.585 77.489 C 322.050 78.002,322.431 78.620,322.431 78.863 C 322.431 79.107,322.562 79.305,322.721 79.305 C 322.880 79.305,323.010 79.623,323.010 80.012 C 323.010 80.400,323.140 80.799,323.300 80.897 C 323.489 81.014,323.589 89.017,323.589 103.963 L 323.589 126.850 324.221 127.397 C 325.058 128.123,341.520 128.211,342.116 127.492 C 342.591 126.920,342.408 79.000,341.928 78.409 C 341.747 78.186,341.527 77.482,341.438 76.845 C 341.150 74.771,340.894 73.806,340.633 73.806 C 340.492 73.806,340.376 73.546,340.376 73.227 C 340.376 72.909,340.246 72.648,340.087 72.648 C 339.928 72.648,339.797 72.388,339.797 72.069 C 339.797 71.751,339.667 71.491,339.508 71.491 C 339.349 71.491,339.219 71.183,339.219 70.806 C 339.219 70.430,338.949 69.778,338.619 69.359 C 338.289 68.939,338.095 68.596,338.188 68.596 C 338.445 68.596,335.463 64.570,334.171 63.172 C 333.544 62.494,332.850 61.939,332.629 61.939 C 332.408 61.939,331.748 61.451,331.164 60.854 C 330.580 60.257,329.743 59.584,329.305 59.358 C 328.868 59.132,328.509 58.839,328.509 58.707 C 328.509 58.574,328.249 58.466,327.931 58.466 C 327.612 58.466,327.352 58.336,327.352 58.177 C 327.352 58.017,327.156 57.887,326.918 57.887 C 326.679 57.887,326.483 57.772,326.483 57.631 C 326.483 57.491,326.190 57.310,325.832 57.230 C 325.474 57.150,322.771 56.485,319.826 55.752 C 316.881 55.019,313.886 54.275,313.169 54.098 C 310.788 53.510,308.495 53.323,308.348 53.705 M213.603 85.456 C 213.603 94.668,213.500 102.141,213.374 102.063 C 213.248 101.985,213.124 102.201,213.098 102.543 C 212.905 105.107,208.333 109.696,205.972 109.696 C 205.553 109.696,205.210 109.826,205.210 109.986 C 205.210 110.145,204.703 110.275,204.083 110.275 L 202.957 110.275 202.760 113.242 C 202.652 114.873,202.443 117.315,202.297 118.669 C 201.936 122.009,201.959 124.750,202.368 126.970 L 202.710 128.825 205.552 128.776 C 207.115 128.750,208.394 128.613,208.394 128.474 C 208.394 128.334,208.830 128.220,209.363 128.220 C 210.217 128.220,211.300 127.965,212.735 127.427 C 212.974 127.338,213.365 127.224,213.603 127.175 C 214.381 127.015,217.722 125.305,218.668 124.583 C 219.176 124.195,219.742 123.878,219.926 123.878 C 220.110 123.878,220.260 123.748,220.260 123.589 C 220.260 123.430,220.425 123.300,220.625 123.300 C 220.826 123.300,221.152 123.039,221.351 122.721 C 221.550 122.402,221.844 122.142,222.004 122.142 C 222.579 122.142,227.264 116.770,227.857 115.429 C 228.055 114.982,228.315 114.616,228.435 114.616 C 228.556 114.616,228.654 114.421,228.654 114.182 C 228.654 113.944,228.784 113.748,228.944 113.748 C 229.103 113.748,229.233 113.488,229.233 113.169 C 229.233 112.851,229.363 112.590,229.522 112.590 C 229.682 112.590,229.812 112.393,229.812 112.152 C 229.812 111.911,229.927 111.488,230.068 111.212 C 230.308 110.739,230.748 109.715,231.280 108.394 C 231.558 107.701,231.821 106.100,232.027 103.835 C 232.111 102.920,232.284 102.171,232.414 102.171 C 232.543 102.171,232.667 94.649,232.690 85.456 L 232.731 68.741 223.167 68.724 L 213.603 68.707 213.603 85.456 M78.204 95.181 L 77.536 95.369 77.769 107.959 C 78.005 120.664,77.997 123.800,77.705 133.936 C 77.601 137.551,77.646 139.508,77.833 139.508 C 77.991 139.508,78.160 140.387,78.207 141.462 L 78.292 143.415 86.831 143.496 C 97.147 143.594,96.692 143.664,96.276 142.045 C 96.101 141.366,95.825 140.717,95.663 140.604 C 95.480 140.475,95.368 138.129,95.367 134.381 C 95.367 131.072,95.334 121.283,95.295 112.627 L 95.224 96.889 94.336 97.066 C 93.416 97.250,91.751 96.618,91.751 96.085 C 91.751 95.930,91.481 95.803,91.152 95.803 C 90.822 95.803,90.357 95.608,90.118 95.369 C 89.571 94.822,86.186 94.768,85.610 95.297 C 84.411 96.399,83.854 96.492,83.219 95.696 C 82.593 94.911,80.076 94.653,78.204 95.181 M19.740 153.459 C 19.483 153.715,19.392 156.395,19.392 163.721 L 19.392 173.635 20.333 173.804 C 20.850 173.898,25.051 173.936,29.667 173.890 L 38.061 173.806 38.151 172.865 L 38.242 171.925 44.162 171.925 C 49.965 171.925,53.546 172.385,53.546 173.130 C 53.546 173.263,53.689 173.372,53.864 173.372 C 54.039 173.372,54.638 173.828,55.195 174.385 C 55.753 174.942,56.326 175.398,56.469 175.398 C 56.612 175.398,56.729 175.565,56.729 175.768 C 56.729 175.972,56.990 176.326,57.308 176.556 C 57.627 176.785,57.887 177.277,57.887 177.650 C 57.887 178.027,58.015 178.247,58.177 178.148 C 58.340 178.047,58.466 178.284,58.466 178.692 C 58.466 179.090,58.596 179.496,58.755 179.595 C 58.942 179.710,59.045 184.802,59.045 193.922 C 59.045 203.042,58.942 208.134,58.755 208.249 C 58.596 208.347,58.466 208.746,58.466 209.134 C 58.466 209.523,58.368 209.841,58.247 209.841 C 58.127 209.841,57.845 210.264,57.621 210.781 C 57.396 211.299,56.855 212.070,56.418 212.496 C 55.981 212.921,55.699 213.345,55.791 213.436 C 55.882 213.528,55.733 213.603,55.458 213.603 C 55.183 213.603,55.039 213.734,55.137 213.893 C 55.236 214.052,55.113 214.182,54.865 214.182 C 54.617 214.182,54.414 214.313,54.414 214.472 C 54.414 214.631,54.146 214.761,53.818 214.761 C 53.490 214.761,53.302 214.891,53.401 215.051 C 53.503 215.215,53.253 215.340,52.822 215.340 C 52.391 215.340,52.141 215.465,52.243 215.630 C 52.349 215.801,52.011 215.919,51.409 215.919 C 50.852 215.919,50.315 216.049,50.217 216.208 C 50.115 216.374,48.588 216.502,46.654 216.507 C 44.139 216.514,43.127 216.625,42.709 216.941 C 41.978 217.494,41.750 217.477,41.588 216.860 C 41.497 216.518,41.445 216.589,41.426 217.077 C 41.411 217.475,41.333 219.233,41.252 220.984 C 41.172 222.735,41.062 226.610,41.007 229.595 L 40.908 235.022 47.227 235.022 C 50.775 235.022,53.546 234.908,53.546 234.761 C 53.546 234.618,54.099 234.429,54.776 234.341 C 57.209 234.023,58.177 233.796,58.177 233.543 C 58.177 233.401,58.410 233.285,58.696 233.285 C 59.436 233.285,64.146 230.873,65.146 229.982 C 65.608 229.570,66.118 229.233,66.278 229.233 C 66.439 229.233,66.570 229.103,66.570 228.944 C 66.570 228.784,66.719 228.654,66.901 228.654 C 67.082 228.654,67.605 228.263,68.061 227.786 C 68.517 227.308,69.020 226.918,69.178 226.918 C 69.335 226.918,69.467 226.820,69.471 226.700 C 69.475 226.581,70.123 225.767,70.912 224.891 C 71.700 224.016,72.349 223.137,72.352 222.938 C 72.356 222.739,72.489 222.576,72.648 222.576 C 72.808 222.576,72.938 222.381,72.938 222.142 C 72.938 221.903,73.068 221.708,73.227 221.708 C 73.386 221.708,73.517 221.512,73.517 221.274 C 73.517 221.035,73.623 220.839,73.752 220.839 C 74.049 220.839,75.253 218.610,75.253 218.062 C 75.253 217.839,75.384 217.656,75.543 217.656 C 75.702 217.656,75.832 217.257,75.832 216.770 C 75.832 216.283,75.935 215.948,76.060 216.026 C 76.186 216.103,76.317 215.818,76.352 215.392 C 76.387 214.965,76.545 214.573,76.703 214.520 C 76.861 214.467,76.990 213.986,76.990 213.452 C 76.990 212.917,77.098 212.413,77.229 212.332 C 77.361 212.251,77.498 211.429,77.535 210.506 C 77.571 209.583,77.712 208.788,77.849 208.740 C 78.220 208.608,78.242 180.700,77.870 180.471 C 77.704 180.368,77.569 179.445,77.569 178.420 C 77.569 177.370,77.442 176.556,77.279 176.556 C 77.120 176.556,76.990 176.035,76.990 175.398 C 76.990 174.761,76.860 174.240,76.700 174.240 C 76.541 174.240,76.411 173.849,76.411 173.372 C 76.411 172.894,76.281 172.504,76.122 172.504 C 75.962 172.504,75.833 172.276,75.835 171.997 C 75.838 171.349,73.514 166.715,73.185 166.715 C 73.049 166.715,72.938 166.576,72.938 166.405 C 72.938 165.484,67.592 159.479,66.772 159.479 C 66.629 159.479,66.166 159.121,65.743 158.683 C 65.319 158.245,64.779 157.845,64.541 157.793 C 64.304 157.741,64.067 157.579,64.014 157.431 C 63.960 157.284,63.660 157.164,63.345 157.164 C 63.031 157.164,62.854 157.033,62.952 156.874 C 63.051 156.715,62.941 156.585,62.709 156.585 C 62.477 156.585,61.545 156.194,60.637 155.716 C 59.729 155.239,58.747 154.848,58.454 154.848 C 58.161 154.848,57.841 154.718,57.742 154.559 C 57.644 154.399,57.253 154.269,56.874 154.269 C 56.495 154.269,56.104 154.139,56.006 153.980 C 55.907 153.821,55.256 153.690,54.559 153.690 C 53.861 153.690,53.210 153.560,53.111 153.401 C 52.834 152.952,20.190 153.008,19.740 153.459 M258.077 153.641 C 257.554 154.218,257.323 203.461,257.839 204.273 C 258.020 204.558,260.112 204.622,267.313 204.563 L 276.556 204.486 276.631 188.444 C 276.703 172.978,276.685 172.380,276.150 171.801 C 275.638 171.247,275.579 170.503,275.386 162.156 L 275.176 153.111 266.866 153.111 C 259.183 153.111,258.520 153.151,258.077 153.641 M173.368 215.176 C 170.573 217.670,162.138 221.720,157.671 222.713 C 154.767 223.359,154.083 224.891,156.699 224.891 C 160.091 224.891,164.708 230.267,164.468 233.936 C 164.450 234.215,164.558 234.443,164.707 234.443 C 164.867 234.443,164.978 236.985,164.978 240.666 L 164.978 246.889 174.260 246.889 L 183.541 246.889 183.422 238.278 C 183.356 233.542,183.238 229.472,183.159 229.233 C 183.081 228.994,182.913 228.278,182.787 227.641 C 182.661 227.004,182.481 226.353,182.387 226.194 C 182.293 226.035,182.182 225.684,182.140 225.415 C 182.098 225.145,181.801 224.457,181.480 223.886 C 181.160 223.315,180.894 222.689,180.891 222.495 C 180.887 222.301,180.630 221.816,180.318 221.418 C 180.007 221.020,179.749 220.526,179.746 220.321 C 179.740 219.950,179.491 219.584,178.509 218.503 C 178.231 218.196,178.003 217.830,178.003 217.690 C 178.003 217.550,177.483 216.900,176.847 216.245 C 175.762 215.127,175.724 215.032,176.238 214.712 C 176.692 214.428,176.720 214.305,176.402 213.987 C 175.747 213.332,175.190 213.550,173.368 215.176 M369.030 215.219 C 367.300 216.407,362.172 219.103,361.642 219.103 C 361.517 219.103,360.951 219.457,360.384 219.889 C 359.817 220.322,357.971 221.355,356.283 222.186 C 352.451 224.071,351.488 225.400,353.910 225.461 C 354.906 225.486,358.457 228.489,358.126 229.026 C 358.020 229.196,358.085 229.235,358.277 229.116 C 358.475 228.994,358.611 229.093,358.611 229.361 C 358.611 229.609,358.741 229.812,358.900 229.812 C 359.059 229.812,359.190 230.072,359.190 230.391 C 359.190 230.709,359.320 230.970,359.479 230.970 C 359.638 230.970,359.768 231.425,359.768 231.983 C 359.768 232.540,359.899 232.996,360.058 232.996 C 360.243 232.996,360.347 235.559,360.347 240.106 L 360.347 247.216 369.537 247.010 C 375.690 246.873,378.805 246.700,378.965 246.485 C 379.314 246.017,378.959 229.784,378.592 229.417 C 378.427 229.252,378.292 228.622,378.292 228.017 C 378.292 227.412,378.162 226.918,378.003 226.918 C 377.844 226.918,377.713 226.600,377.713 226.211 C 377.713 225.822,377.583 225.424,377.424 225.326 C 377.265 225.227,377.135 224.829,377.135 224.440 C 377.135 224.052,377.004 223.734,376.845 223.734 C 376.686 223.734,376.556 223.433,376.556 223.065 C 376.556 222.697,376.328 222.137,376.049 221.820 C 375.326 220.997,374.819 220.052,374.819 219.524 C 374.819 219.273,374.689 219.149,374.530 219.247 C 374.370 219.346,374.240 219.223,374.240 218.975 C 374.240 218.727,374.110 218.524,373.951 218.524 C 373.792 218.524,373.661 218.388,373.661 218.221 C 373.661 217.949,373.345 217.562,371.711 215.835 C 371.317 215.419,371.287 215.211,371.559 214.776 C 371.831 214.340,371.811 214.200,371.453 214.063 C 370.912 213.856,371.248 213.696,369.030 215.219 M21.495 216.416 C 21.935 216.483,22.586 216.481,22.942 216.412 C 23.298 216.343,22.938 216.289,22.142 216.291 C 21.346 216.293,21.055 216.350,21.495 216.416 M128.871 247.395 L 123.878 247.481 123.878 261.212 C 123.878 274.559,123.894 274.952,124.446 275.247 C 124.816 275.445,128.021 275.525,133.636 275.475 L 142.258 275.398 142.333 261.288 L 142.408 247.178 138.136 247.243 C 135.786 247.279,131.617 247.347,128.871 247.395 M319.247 261.650 C 319.247 273.516,319.297 274.964,319.699 274.964 C 319.947 274.964,320.067 275.097,319.967 275.260 C 319.843 275.461,322.746 275.550,328.911 275.535 L 338.039 275.512 338.055 261.924 L 338.071 248.336 328.659 248.336 L 319.247 248.336 319.247 261.650 " stroke="none" fill="#baaa35" fill-rule="evenodd"></path><path id="path4" d="M172.672 68.558 C 172.587 68.696,172.508 76.316,172.497 85.490 C 172.484 95.859,172.372 102.171,172.201 102.171 C 172.049 102.171,171.925 102.496,171.925 102.894 C 171.925 103.292,171.795 103.618,171.635 103.618 C 171.476 103.618,171.346 103.878,171.346 104.197 C 171.346 104.515,171.216 104.776,171.056 104.776 C 170.011 104.776,171.714 107.979,174.502 111.255 C 175.465 112.388,177.045 114.386,178.013 115.695 C 178.981 117.005,180.168 118.308,180.652 118.590 C 181.136 118.872,181.796 119.624,182.120 120.260 C 182.444 120.897,183.401 122.069,184.246 122.865 C 186.281 124.783,186.602 125.036,186.990 125.036 C 187.170 125.036,187.649 125.297,188.054 125.615 C 188.459 125.933,189.033 126.194,189.330 126.194 C 189.627 126.194,189.870 126.296,189.870 126.420 C 189.870 126.545,190.488 126.824,191.245 127.041 C 192.001 127.258,192.771 127.554,192.956 127.698 C 193.142 127.842,194.216 128.037,195.344 128.132 C 196.472 128.227,197.395 128.415,197.395 128.551 C 197.395 128.687,198.582 128.799,200.033 128.799 L 202.671 128.799 202.494 127.858 C 202.065 125.568,201.975 121.983,202.271 118.933 C 202.447 117.116,202.676 114.425,202.780 112.952 L 202.969 110.275 201.533 110.275 C 200.743 110.275,200.005 110.183,199.893 110.071 C 199.780 109.959,199.335 109.821,198.904 109.764 C 198.472 109.707,198.075 109.538,198.022 109.389 C 197.969 109.239,197.676 109.117,197.371 109.117 C 197.066 109.117,196.816 108.987,196.816 108.828 C 196.816 108.669,196.669 108.538,196.488 108.538 C 196.308 108.538,195.917 108.258,195.620 107.915 C 195.323 107.572,195.080 107.397,195.080 107.525 C 195.080 107.739,194.759 107.408,193.398 105.785 C 192.916 105.211,192.573 104.547,191.932 102.953 C 191.704 102.386,191.606 97.080,191.606 85.225 L 191.606 68.307 182.217 68.307 C 177.053 68.307,172.757 68.420,172.672 68.558 M323.969 183.429 C 326.646 183.477,330.944 183.477,333.521 183.429 C 336.097 183.381,333.907 183.342,328.654 183.342 C 323.401 183.342,321.293 183.382,323.969 183.429 M128.437 183.719 C 131.024 183.767,135.257 183.767,137.844 183.719 C 140.431 183.671,138.314 183.632,133.140 183.632 C 127.967 183.632,125.850 183.671,128.437 183.719 " stroke="none" fill="#548bc3" fill-rule="evenodd"></path><path id="path5" d="M86.252 4.631 C 86.252 4.790,86.373 4.920,86.520 4.920 C 86.668 4.920,86.837 5.148,86.896 5.427 C 86.971 5.777,87.054 5.688,87.167 5.137 C 87.298 4.496,87.225 4.342,86.791 4.342 C 86.494 4.342,86.252 4.472,86.252 4.631 M131.256 52.533 C 131.256 78.162,131.290 88.604,131.331 75.737 C 131.373 62.870,131.373 41.900,131.331 29.138 C 131.290 16.375,131.256 26.903,131.256 52.533 M248.116 76.918 C 248.078 104.497,248.144 127.062,248.263 127.062 C 248.460 127.062,248.459 92.934,248.261 44.863 C 248.220 34.913,248.155 49.338,248.116 76.918 M303.701 54.049 C 304.622 54.107,306.055 54.106,306.885 54.048 C 307.715 53.990,306.961 53.943,305.210 53.943 C 303.459 53.944,302.780 53.992,303.701 54.049 M97.964 85.384 C 97.964 93.582,98.001 96.936,98.046 92.836 C 98.091 88.737,98.091 82.030,98.046 77.931 C 98.001 73.831,97.964 77.185,97.964 85.384 M59.334 72.069 C 58.123 72.173,61.291 72.278,66.498 72.307 C 72.563 72.341,75.832 72.258,75.832 72.069 C 75.832 71.751,63.070 71.751,59.334 72.069 M283.792 72.648 C 283.905 72.831,287.322 72.938,293.088 72.938 C 299.092 72.938,302.144 72.839,302.026 72.648 C 301.913 72.465,298.496 72.359,292.730 72.359 C 286.726 72.359,283.674 72.458,283.792 72.648 M115.526 78.116 C 115.113 78.377,115.314 79.595,115.770 79.595 C 115.906 79.595,116.222 79.674,116.474 79.770 C 116.839 79.911,116.932 79.735,116.932 78.902 C 116.932 77.823,116.431 77.542,115.526 78.116 M75.253 95.803 C 75.253 96.961,75.377 97.829,75.543 97.829 C 75.708 97.829,75.832 96.961,75.832 95.803 C 75.832 94.645,75.708 93.777,75.543 93.777 C 75.377 93.777,75.253 94.645,75.253 95.803 M83.068 95.334 C 83.068 96.089,83.776 96.403,84.607 96.016 C 85.917 95.405,85.810 94.935,84.361 94.935 C 83.456 94.935,83.068 95.054,83.068 95.334 M90.199 95.369 C 90.291 95.608,90.678 95.803,91.058 95.803 C 91.439 95.803,91.751 95.930,91.751 96.085 C 91.751 96.618,93.416 97.250,94.336 97.066 L 95.224 96.889 95.295 112.627 C 95.334 121.283,95.367 131.044,95.367 134.318 C 95.369 140.260,95.531 141.245,96.506 141.245 C 96.597 141.245,96.671 138.444,96.671 135.022 C 96.671 129.899,96.600 128.799,96.269 128.799 C 95.568 128.799,95.499 127.597,95.559 116.277 C 95.591 110.190,95.668 105.568,95.730 106.006 C 95.844 106.820,96.201 107.039,96.535 106.499 C 97.052 105.662,96.656 96.582,96.081 96.083 C 95.469 95.551,95.301 95.059,95.848 95.397 C 96.055 95.525,96.103 95.476,95.976 95.269 C 95.633 94.715,89.986 94.813,90.199 95.369 M131.119 99.621 C 131.127 100.348,131.684 100.946,131.689 100.234 C 131.691 99.885,131.563 99.520,131.404 99.421 C 131.245 99.323,131.116 99.413,131.119 99.621 M95.725 103.250 C 95.662 103.850,95.610 103.430,95.609 102.315 C 95.607 101.201,95.659 100.710,95.723 101.224 C 95.787 101.737,95.788 102.649,95.725 103.250 M77.671 117.851 C 77.694 123.849,77.814 128.577,77.936 128.359 C 78.059 128.140,78.040 123.233,77.894 117.454 L 77.628 106.946 77.671 117.851 M162.504 111.650 C 162.619 112.406,162.839 115.369,162.994 118.234 C 163.523 128.019,163.587 128.799,163.866 128.799 C 164.144 128.799,164.092 127.067,163.513 117.077 C 163.365 114.530,163.244 111.957,163.243 111.360 C 163.242 110.549,163.122 110.275,162.768 110.275 C 162.367 110.275,162.327 110.485,162.504 111.650 M110.711 118.667 C 110.422 118.986,110.280 119.247,110.395 119.247 C 110.701 119.247,111.526 118.376,111.369 118.219 C 111.296 118.146,111.000 118.347,110.711 118.667 M64.255 120.161 C 64.255 120.463,67.183 123.362,67.335 123.210 C 67.394 123.151,66.725 122.385,65.849 121.508 C 64.972 120.632,64.255 120.025,64.255 120.161 M182.634 121.711 C 182.634 122.004,184.154 123.299,184.497 123.299 C 184.647 123.299,184.515 123.072,184.204 122.793 C 183.148 121.846,182.634 121.492,182.634 121.711 M105.208 124.170 C 104.456 125.001,104.790 125.094,105.582 124.274 C 105.946 123.897,106.129 123.589,105.988 123.589 C 105.848 123.589,105.497 123.850,105.208 124.170 M103.111 125.648 C 102.125 126.280,101.806 126.704,102.677 126.225 C 103.341 125.860,104.382 125.056,104.197 125.050 C 104.117 125.048,103.629 125.317,103.111 125.648 M301.399 127.496 C 301.399 127.744,301.517 127.907,301.662 127.859 C 301.806 127.811,301.925 127.648,301.925 127.496 C 301.925 127.345,301.806 127.182,301.662 127.134 C 301.517 127.086,301.399 127.249,301.399 127.496 M77.569 141.534 C 77.569 142.962,77.676 143.560,77.931 143.561 C 78.195 143.561,78.266 143.015,78.196 141.535 C 78.071 138.901,77.569 138.900,77.569 141.534 M164.592 154.173 C 164.486 154.279,164.421 163.689,164.448 175.084 C 164.475 186.480,164.587 194.436,164.698 192.764 C 164.808 191.093,164.832 188.585,164.751 187.192 L 164.602 184.660 174.052 184.660 C 182.491 184.660,183.502 184.611,183.502 184.200 C 183.502 183.797,183.085 183.761,180.101 183.907 C 178.231 183.998,173.996 184.153,170.690 184.250 L 164.679 184.427 164.756 169.203 C 164.799 160.830,164.823 153.980,164.809 153.980 C 164.796 153.980,164.699 154.067,164.592 154.173 M379.161 164.110 C 379.161 172.664,379.104 173.951,378.726 173.951 C 378.358 173.951,378.292 174.687,378.292 178.840 C 378.292 182.856,378.217 183.759,377.871 183.892 C 377.639 183.981,373.600 184.145,368.895 184.257 C 364.190 184.369,360.402 184.522,360.476 184.596 C 360.551 184.670,364.850 184.747,370.030 184.768 L 379.449 184.805 379.450 169.537 C 379.450 161.140,379.385 154.269,379.305 154.269 C 379.226 154.269,379.161 158.698,379.161 164.110 M319.081 188.857 C 319.082 192.359,319.123 193.752,319.174 191.952 C 319.225 190.152,319.225 187.287,319.174 185.585 C 319.123 183.882,319.081 185.355,319.081 188.857 M319.135 197.250 C 319.373 198.315,319.538 198.546,319.532 197.805 C 319.530 197.500,319.396 197.055,319.234 196.816 C 319.020 196.499,318.993 196.616,319.135 197.250 M123.899 199.042 C 123.888 199.391,124.009 199.757,124.168 199.855 C 124.510 200.067,124.510 199.784,124.168 198.987 C 123.928 198.429,123.918 198.431,123.899 199.042 M181.820 203.352 C 181.120 203.842,180.958 204.920,181.586 204.920 C 181.976 204.920,182.838 203.291,182.583 203.036 C 182.512 202.966,182.169 203.107,181.820 203.352 M218.379 211.498 C 234.092 211.699,246.242 211.702,246.120 211.505 C 246.047 211.386,238.407 211.318,229.144 211.354 C 219.880 211.391,215.036 211.456,218.379 211.498 M35.890 215.642 C 35.014 215.763,30.944 215.875,26.845 215.890 C 22.746 215.906,19.392 216.017,19.392 216.136 C 19.392 216.456,36.503 216.211,37.117 215.882 C 37.404 215.728,37.786 215.694,37.967 215.806 C 38.168 215.930,38.215 215.879,38.088 215.674 C 37.975 215.490,37.792 215.358,37.682 215.381 C 37.572 215.403,36.766 215.521,35.890 215.642 M41.679 216.932 C 41.679 217.480,41.993 217.483,42.709 216.941 C 43.247 216.534,43.237 216.516,42.475 216.507 C 41.956 216.501,41.679 216.649,41.679 216.932 M257.598 249.324 C 257.598 270.944,257.659 274.777,258.011 275.129 C 258.450 275.568,270.877 275.770,271.302 275.345 C 271.939 274.708,269.409 274.385,263.787 274.385 L 257.887 274.385 257.887 249.447 L 257.887 224.510 264.012 224.701 C 267.381 224.806,271.548 224.891,273.272 224.891 L 276.408 224.891 276.483 249.711 L 276.559 274.530 276.630 249.421 L 276.700 224.313 274.891 224.310 C 273.897 224.309,269.598 224.223,265.340 224.120 L 257.598 223.933 257.598 249.324 M152.898 224.810 C 153.338 224.876,153.990 224.874,154.346 224.806 C 154.702 224.737,154.342 224.683,153.546 224.685 C 152.750 224.687,152.458 224.743,152.898 224.810 M348.557 224.810 C 348.997 224.876,349.648 224.874,350.004 224.806 C 350.360 224.737,350.000 224.683,349.204 224.685 C 348.408 224.687,348.117 224.743,348.557 224.810 M215.475 228.671 C 214.921 229.566,215.623 230.391,216.937 230.391 C 218.615 230.391,218.588 230.099,216.795 228.859 C 215.963 228.284,215.734 228.251,215.475 228.671 M164.409 254.486 C 164.417 271.652,164.479 274.610,164.843 275.091 C 165.077 275.401,165.268 275.506,165.268 275.326 C 165.268 275.145,165.116 274.904,164.932 274.790 C 164.679 274.634,164.640 269.611,164.777 254.513 C 164.893 241.668,164.858 234.443,164.679 234.443 C 164.502 234.443,164.403 241.777,164.409 254.486 M319.095 255.137 C 319.095 265.962,319.131 270.349,319.175 264.885 C 319.219 259.421,319.219 250.564,319.175 245.203 C 319.131 239.842,319.095 244.313,319.095 255.137 M89.436 275.253 C 89.436 275.439,92.083 275.543,96.799 275.543 C 101.396 275.543,104.230 275.434,104.342 275.253 C 104.459 275.063,101.933 274.964,96.978 274.964 C 92.143 274.964,89.436 275.068,89.436 275.253 M105.503 275.259 C 105.603 275.421,106.184 275.519,106.794 275.476 C 108.236 275.375,107.983 274.964,106.478 274.964 C 105.766 274.964,105.390 275.077,105.503 275.259 " stroke="none" fill="#526a51" fill-rule="evenodd"></path></g></svg>