<svg id="svg" version="1.1" xmlns="http://www.w3.org/2000/svg" xmlns:xlink="http://www.w3.org/1999/xlink" width="400" height="289.4217207334274" viewBox="0, 0, 400,289.4217207334274"><g id="svgg"><path id="path0" d="M83.502 4.371 C 80.480 4.659,79.004 4.897,78.292 5.213 C 77.974 5.355,77.094 5.671,76.337 5.916 C 71.942 7.340,63.438 13.385,64.169 14.567 C 64.265 14.723,64.211 14.769,64.049 14.668 C 63.409 14.273,59.070 21.588,58.798 23.520 C 58.781 23.641,58.576 24.109,58.343 24.560 C 58.110 25.011,57.867 25.693,57.803 26.076 C 57.739 26.459,57.616 26.968,57.531 27.207 C 56.820 29.183,56.729 31.919,56.729 51.429 L 56.729 72.134 66.569 72.029 L 76.408 71.925 76.409 51.863 C 76.411 28.489,76.231 30.057,79.276 26.905 C 81.309 24.800,83.795 23.589,85.856 23.699 C 87.170 23.769,87.180 23.686,86.950 13.782 C 86.752 5.284,86.715 4.836,86.183 4.697 C 85.752 4.584,85.713 4.494,86.010 4.306 C 86.223 4.171,86.266 4.081,86.107 4.106 C 85.948 4.130,84.776 4.249,83.502 4.371 M172.549 5.809 L 171.925 6.390 171.925 37.421 L 171.924 68.452 181.684 68.366 C 188.896 68.302,191.502 68.189,191.665 67.932 C 192.253 67.007,191.922 6.394,191.326 5.797 C 190.433 4.905,173.508 4.915,172.549 5.809 M307.959 53.602 C 307.959 53.730,306.748 53.835,305.268 53.835 C 303.657 53.835,302.445 53.966,302.250 54.161 C 301.715 54.696,283.666 54.909,283.330 54.384 C 283.176 54.143,283.100 57.666,283.142 63.097 L 283.213 72.214 292.343 72.359 C 300.318 72.485,301.570 72.566,302.230 72.999 C 302.872 73.420,303.935 73.509,309.307 73.591 C 315.836 73.691,316.988 73.821,317.708 74.541 C 317.941 74.774,318.265 74.964,318.429 74.964 C 318.998 74.964,321.468 77.769,322.145 79.184 C 322.519 79.967,322.902 80.673,322.997 80.753 C 323.091 80.832,323.172 81.353,323.176 81.910 C 323.181 82.467,323.211 92.855,323.242 104.993 C 323.298 126.637,323.311 127.073,323.878 127.641 C 324.788 128.551,342.801 128.521,342.239 127.611 C 342.151 127.468,342.217 127.352,342.385 127.352 C 342.823 127.352,342.812 80.411,342.373 78.514 C 341.744 75.793,341.474 74.811,341.216 74.317 C 341.073 74.040,340.955 73.647,340.955 73.444 C 340.955 73.039,339.304 69.547,338.878 69.050 C 338.732 68.880,338.325 68.190,337.974 67.518 C 336.859 65.380,333.468 61.650,332.641 61.650 C 332.419 61.650,332.310 61.534,332.397 61.392 C 332.485 61.250,332.199 60.901,331.763 60.615 C 331.327 60.330,330.803 59.931,330.600 59.728 C 329.712 58.844,326.685 57.216,325.828 57.163 C 325.313 57.132,322.417 56.489,319.392 55.736 C 316.368 54.983,313.437 54.256,312.880 54.121 C 311.117 53.692,307.959 53.359,307.959 53.602 M213.224 68.493 C 213.114 68.603,213.025 76.284,213.025 85.561 L 213.025 102.430 212.299 103.793 C 211.361 105.558,209.815 107.588,209.262 107.782 C 209.023 107.866,208.244 108.280,207.530 108.704 C 206.694 109.200,205.639 109.528,204.563 109.625 L 202.894 109.776 202.899 110.966 C 202.901 111.621,202.692 114.826,202.433 118.090 C 202.022 123.284,202.014 124.348,202.369 126.628 L 202.774 129.233 205.077 129.195 C 216.606 129.007,227.947 120.187,231.454 108.683 C 231.793 107.569,232.231 106.071,232.426 105.355 C 232.680 104.419,232.818 99.015,232.912 86.194 L 233.045 68.336 223.234 68.315 C 217.839 68.303,213.334 68.383,213.224 68.493 M77.700 95.356 C 76.835 96.221,76.626 103.563,77.403 105.791 C 77.703 106.651,77.861 109.681,78.018 117.540 L 78.230 128.130 77.608 128.565 C 76.949 129.026,76.968 142.692,77.628 142.692 C 77.768 142.692,77.845 142.917,77.799 143.192 C 77.752 143.467,77.865 143.695,78.051 143.698 C 78.237 143.702,78.486 143.802,78.606 143.922 C 78.931 144.247,95.063 144.186,95.929 143.857 C 96.926 143.478,97.026 141.236,96.076 140.571 C 95.486 140.158,95.478 139.918,95.280 118.486 L 95.080 96.818 93.967 96.914 C 93.166 96.983,92.679 96.850,92.230 96.440 C 91.887 96.126,91.313 95.781,90.955 95.672 C 90.065 95.402,90.136 94.999,91.100 94.853 C 91.538 94.786,90.268 94.723,88.278 94.712 C 86.288 94.700,84.823 94.757,85.022 94.837 C 85.593 95.068,85.448 95.391,84.599 95.778 C 83.704 96.186,82.649 95.380,83.430 94.884 C 83.629 94.758,82.581 94.652,81.101 94.650 C 78.628 94.646,78.353 94.703,77.700 95.356 M95.152 94.837 C 95.351 94.917,95.514 95.160,95.514 95.375 C 95.514 95.594,95.780 95.747,96.118 95.722 C 96.721 95.676,96.721 95.675,96.086 95.161 C 95.736 94.877,95.301 94.656,95.120 94.668 C 94.907 94.683,94.918 94.743,95.152 94.837 M19.971 152.897 L 19.247 153.273 19.171 163.438 L 19.095 173.604 22.355 173.795 C 24.148 173.901,28.480 173.946,31.983 173.896 L 38.350 173.806 38.442 173.010 L 38.533 172.214 44.235 172.214 C 49.107 172.214,50.154 172.294,51.434 172.762 C 52.258 173.063,52.987 173.255,53.053 173.189 C 53.119 173.123,53.338 173.267,53.540 173.510 C 53.741 173.752,54.025 173.951,54.171 173.951 C 54.787 173.951,57.887 177.577,57.887 178.297 C 57.887 178.549,58.050 178.918,58.249 179.117 C 58.714 179.582,58.944 203.778,58.513 206.889 C 57.672 212.957,53.642 215.919,46.226 215.919 C 43.029 215.919,42.587 215.976,42.738 216.370 C 42.853 216.670,42.709 216.875,42.309 216.979 C 41.359 217.228,41.110 219.313,41.029 227.710 C 40.970 233.819,41.031 235.334,41.341 235.453 C 42.467 235.885,51.527 235.577,54.145 235.017 C 66.447 232.388,75.344 223.501,77.899 211.288 C 78.467 208.570,78.472 178.654,77.904 177.048 C 77.690 176.444,77.475 175.662,77.427 175.312 C 77.169 173.435,74.732 167.716,73.747 166.677 C 73.541 166.459,73.177 165.890,72.938 165.412 C 72.301 164.138,66.405 158.321,65.750 158.321 C 65.564 158.321,65.412 158.191,65.412 158.032 C 65.412 157.873,65.217 157.742,64.978 157.742 C 64.740 157.742,64.544 157.614,64.544 157.456 C 64.544 157.093,60.044 154.814,59.803 155.055 C 59.704 155.153,59.624 155.095,59.624 154.925 C 59.624 154.755,58.940 154.446,58.104 154.238 C 57.268 154.031,56.520 153.843,56.440 153.823 C 56.360 153.802,56.070 153.686,55.795 153.564 C 55.520 153.443,54.772 153.324,54.132 153.300 C 53.493 153.276,52.969 153.180,52.968 153.087 C 52.963 152.560,20.976 152.375,19.971 152.897 M257.815 153.464 C 257.341 154.056,257.308 155.734,257.308 179.350 L 257.308 204.603 267.149 204.623 L 276.990 204.644 276.981 188.646 C 276.973 175.038,276.908 172.564,276.547 172.087 C 276.206 171.636,276.122 170.372,276.122 165.692 C 276.122 162.484,276.036 158.276,275.932 156.341 L 275.743 152.822 267.032 152.826 C 258.419 152.830,258.316 152.837,257.815 153.464 M173.517 215.220 C 170.920 217.554,161.342 222.137,157.600 222.836 C 155.613 223.207,154.182 225.181,155.899 225.181 C 158.374 225.181,161.720 227.571,163.154 230.363 L 164.255 232.506 164.348 239.770 L 164.442 247.033 174.261 246.953 L 184.081 246.874 184.081 239.523 C 184.081 231.106,183.862 229.511,181.989 224.320 C 181.023 221.642,179.289 218.545,177.735 216.725 C 177.190 216.086,176.728 215.348,176.708 215.085 C 176.591 213.488,175.387 213.539,173.517 215.220 M369.350 215.229 C 368.496 215.804,366.243 217.028,364.345 217.948 C 362.447 218.868,360.673 219.816,360.404 220.054 C 360.134 220.293,358.334 221.276,356.404 222.239 C 352.167 224.355,351.749 224.995,353.955 226.000 C 355.690 226.791,356.250 227.176,357.145 228.196 C 359.597 230.986,359.768 231.775,359.773 240.372 C 359.775 244.354,359.873 247.482,359.990 247.323 C 360.121 247.144,363.688 246.998,369.320 246.940 C 374.334 246.888,378.665 246.782,378.944 246.703 C 379.551 246.531,379.718 231.915,379.138 229.701 C 378.966 229.046,378.692 227.988,378.529 227.352 C 378.366 226.715,378.094 225.868,377.925 225.470 C 377.756 225.072,377.586 224.590,377.548 224.399 C 377.265 222.971,374.826 218.817,372.710 216.158 C 372.244 215.573,371.942 214.968,372.037 214.814 C 372.192 214.563,371.627 214.182,371.101 214.182 C 370.993 214.182,370.205 214.653,369.350 215.229 M30.318 216.134 C 31.473 216.189,33.361 216.189,34.515 216.134 C 35.669 216.079,34.725 216.034,32.417 216.034 C 30.109 216.034,29.164 216.079,30.318 216.134 M19.236 232.706 C 19.236 239.949,19.274 242.912,19.320 239.291 C 19.365 235.669,19.365 229.743,19.320 226.122 C 19.274 222.500,19.236 225.463,19.236 232.706 M131.187 247.389 L 123.300 247.477 123.300 261.076 C 123.300 275.735,123.363 276.314,124.905 275.722 C 125.126 275.637,125.384 275.693,125.478 275.845 C 125.717 276.231,141.443 276.214,141.682 275.827 C 141.782 275.666,141.978 275.604,142.118 275.691 C 142.883 276.163,142.985 274.277,142.912 261.012 L 142.836 247.323 140.955 247.312 C 139.920 247.306,135.525 247.341,131.187 247.389 M319.211 261.216 C 319.191 268.300,319.175 274.291,319.175 274.530 C 319.175 275.376,319.250 275.637,319.438 275.449 C 319.543 275.344,319.828 275.420,320.072 275.618 C 320.433 275.910,320.472 275.904,320.280 275.585 C 320.118 275.316,320.272 275.342,320.773 275.671 C 321.965 276.451,337.350 276.222,337.940 275.415 C 338.280 274.949,338.350 272.583,338.350 261.594 L 338.350 248.336 328.799 248.336 L 319.247 248.336 319.211 261.216 " stroke="none" fill="#ca9c2f" fill-rule="evenodd"></path><path id="path1" d="M87.180 4.263 C 86.722 4.347,86.560 4.535,86.657 4.870 C 86.734 5.136,86.837 9.491,86.886 14.548 L 86.975 23.740 88.059 23.617 C 88.655 23.550,89.220 23.619,89.314 23.771 C 89.408 23.922,89.734 23.968,90.039 23.871 C 90.381 23.762,90.593 23.832,90.593 24.052 C 90.593 24.248,90.679 24.323,90.784 24.219 C 90.889 24.114,91.149 24.173,91.363 24.351 C 91.576 24.528,91.753 24.559,91.756 24.420 C 91.758 24.282,91.857 24.320,91.975 24.506 C 92.094 24.693,92.382 24.888,92.615 24.941 C 92.849 24.993,93.285 25.336,93.586 25.703 C 93.887 26.069,94.205 26.297,94.293 26.209 C 94.531 25.971,95.514 26.942,95.514 27.414 C 95.514 27.637,95.629 27.749,95.770 27.661 C 95.994 27.523,96.148 27.815,96.528 29.088 C 96.575 29.247,96.776 29.768,96.973 30.246 C 97.524 31.577,97.501 30.213,97.589 66.860 C 97.652 93.135,97.709 97.726,97.823 85.962 L 97.974 70.478 107.453 70.333 L 116.932 70.188 117.204 70.912 C 117.530 71.781,117.427 32.362,117.098 30.391 C 116.767 28.409,116.735 28.253,116.564 27.786 C 116.393 27.317,115.848 25.190,115.602 24.032 C 115.519 23.639,115.312 23.151,115.143 22.947 C 114.974 22.743,114.917 22.576,115.016 22.576 C 115.251 22.576,113.695 19.604,113.314 19.324 C 113.155 19.207,113.132 19.110,113.262 19.107 C 113.393 19.105,113.295 18.898,113.045 18.648 C 112.795 18.398,112.590 18.007,112.590 17.780 C 112.590 17.552,112.488 17.366,112.363 17.366 C 112.239 17.366,111.889 16.943,111.588 16.425 C 111.003 15.424,109.518 13.735,108.122 12.484 C 107.654 12.065,106.941 11.364,106.538 10.926 C 106.135 10.488,105.638 10.130,105.435 10.130 C 105.231 10.130,105.065 10.000,105.065 9.841 C 105.065 9.682,104.870 9.551,104.631 9.551 C 104.392 9.551,104.197 9.413,104.197 9.245 C 104.197 9.076,104.075 9.014,103.925 9.106 C 103.776 9.199,103.548 9.101,103.419 8.889 C 103.289 8.678,102.760 8.333,102.243 8.124 C 101.726 7.915,101.302 7.630,101.302 7.490 C 101.302 7.350,101.042 7.236,100.724 7.236 C 100.405 7.236,100.145 7.132,100.145 7.005 C 100.145 6.733,98.441 6.078,97.736 6.078 C 97.469 6.078,97.250 5.940,97.250 5.772 C 97.250 5.603,97.114 5.549,96.948 5.652 C 96.782 5.755,96.326 5.629,95.935 5.373 C 95.544 5.117,95.224 4.961,95.224 5.028 C 95.224 5.094,94.736 5.024,94.139 4.872 C 93.542 4.720,92.337 4.539,91.462 4.470 C 90.586 4.402,89.414 4.299,88.857 4.243 C 88.300 4.186,87.545 4.195,87.180 4.263 M322.502 5.116 C 322.302 5.195,322.212 5.378,322.302 5.524 C 322.392 5.670,322.320 5.789,322.142 5.789 C 321.964 5.789,321.893 5.910,321.985 6.058 C 322.076 6.206,322.025 6.406,321.870 6.502 C 321.715 6.597,321.662 6.867,321.751 7.100 C 321.841 7.334,321.759 7.525,321.570 7.525 C 321.380 7.525,321.278 7.685,321.343 7.880 C 321.408 8.074,321.299 8.546,321.101 8.929 C 320.903 9.311,320.809 9.803,320.893 10.022 C 320.977 10.241,320.888 10.420,320.695 10.420 C 320.501 10.420,320.417 10.611,320.506 10.845 C 320.596 11.078,320.543 11.348,320.388 11.443 C 320.233 11.539,320.176 11.730,320.260 11.867 C 320.345 12.004,320.288 12.195,320.133 12.290 C 319.978 12.386,319.920 12.642,320.003 12.860 C 320.087 13.077,320.022 13.338,319.859 13.439 C 319.696 13.540,319.636 13.813,319.725 14.047 C 319.815 14.281,319.766 14.472,319.616 14.472 C 319.466 14.472,319.330 14.635,319.313 14.834 C 319.240 15.695,318.885 17.226,318.597 17.919 C 318.426 18.331,318.311 18.780,318.343 18.916 C 318.374 19.052,318.249 19.345,318.064 19.567 C 317.880 19.789,317.826 19.971,317.945 19.971 C 318.064 19.971,317.998 20.166,317.800 20.405 C 317.602 20.644,317.524 20.839,317.628 20.839 C 317.731 20.839,317.607 21.242,317.353 21.734 C 317.098 22.226,316.950 22.785,317.024 22.976 C 317.097 23.167,316.976 23.571,316.755 23.874 C 316.534 24.176,316.353 24.854,316.353 25.381 C 316.353 25.908,316.215 26.339,316.047 26.339 C 315.878 26.339,315.814 26.458,315.904 26.604 C 315.994 26.750,315.919 27.238,315.737 27.689 C 315.555 28.140,315.367 28.812,315.318 29.182 C 315.270 29.552,315.081 30.035,314.898 30.255 C 314.716 30.475,314.645 30.782,314.741 30.937 C 314.837 31.092,314.781 31.302,314.616 31.404 C 314.452 31.505,314.393 31.710,314.484 31.858 C 314.576 32.006,314.528 32.127,314.377 32.127 C 314.226 32.127,314.031 32.486,313.943 32.923 C 313.583 34.713,313.403 35.478,313.245 35.890 C 313.153 36.129,313.103 36.436,313.134 36.572 C 313.164 36.708,313.063 36.972,312.907 37.160 C 312.752 37.347,312.545 37.887,312.448 38.359 C 312.216 39.486,312.069 40.070,311.998 40.159 C 311.965 40.199,311.912 40.329,311.879 40.449 C 311.846 40.568,311.672 41.019,311.492 41.451 C 311.313 41.882,311.107 42.599,311.034 43.042 C 310.961 43.486,310.871 43.915,310.834 43.994 C 310.796 44.074,310.741 44.269,310.710 44.428 C 310.680 44.588,310.503 45.087,310.318 45.538 C 310.133 45.989,310.050 46.469,310.133 46.603 C 310.216 46.738,310.150 46.932,309.986 47.033 C 309.821 47.135,309.756 47.330,309.841 47.467 C 309.926 47.605,309.868 47.795,309.713 47.891 C 309.559 47.987,309.500 48.243,309.584 48.460 C 309.667 48.678,309.594 48.943,309.422 49.050 C 309.249 49.157,309.177 49.356,309.262 49.493 C 309.347 49.631,309.289 49.821,309.135 49.917 C 308.980 50.013,308.926 50.282,309.016 50.516 C 309.106 50.749,309.027 50.941,308.842 50.941 C 308.656 50.941,308.576 51.057,308.664 51.200 C 308.753 51.343,308.633 51.828,308.400 52.278 C 307.845 53.347,307.992 53.449,310.564 53.786 C 313.153 54.125,316.687 54.901,321.418 56.169 C 326.840 57.623,326.979 57.603,327.116 55.370 C 327.143 54.924,327.238 54.428,327.327 54.269 C 327.415 54.110,327.501 53.915,327.517 53.835 C 327.533 53.755,327.626 53.495,327.723 53.256 C 328.192 52.106,328.771 49.683,328.632 49.458 C 328.546 49.318,328.613 49.204,328.782 49.204 C 328.950 49.204,329.088 48.813,329.088 48.336 C 329.088 47.858,329.226 47.467,329.395 47.467 C 329.563 47.467,329.628 47.348,329.537 47.202 C 329.447 47.056,329.526 46.568,329.712 46.117 C 329.898 45.666,330.031 45.204,330.007 45.090 C 329.983 44.976,330.112 44.520,330.294 44.077 C 330.476 43.633,330.659 43.098,330.702 42.886 C 330.745 42.675,330.879 42.284,330.999 42.018 C 331.202 41.570,331.355 40.902,331.458 40.014 C 331.481 39.815,331.609 39.653,331.741 39.653 C 331.874 39.653,331.983 39.224,331.983 38.701 C 331.983 38.177,332.239 37.246,332.552 36.632 C 332.865 36.018,333.050 35.398,332.961 35.256 C 332.873 35.113,332.975 34.782,333.188 34.519 C 333.518 34.112,333.511 34.079,333.140 34.292 C 332.869 34.449,332.913 34.307,333.258 33.914 C 333.561 33.568,333.720 33.285,333.612 33.285 C 333.504 33.285,333.613 32.903,333.854 32.435 C 334.096 31.968,334.216 31.382,334.120 31.133 C 334.025 30.884,334.087 30.680,334.258 30.680 C 334.429 30.680,334.494 30.485,334.403 30.246 C 334.311 30.007,334.361 29.812,334.513 29.812 C 334.665 29.812,334.801 29.401,334.815 28.899 C 334.829 28.398,334.998 27.890,335.190 27.771 C 335.382 27.653,335.467 27.282,335.380 26.947 C 335.292 26.612,335.339 26.411,335.483 26.500 C 335.719 26.646,335.883 26.000,335.769 25.368 C 335.745 25.231,335.876 24.938,336.060 24.716 C 336.244 24.494,336.298 24.313,336.179 24.313 C 336.061 24.313,336.109 24.138,336.286 23.924 C 336.464 23.711,336.535 23.462,336.445 23.372 C 336.355 23.282,336.469 22.838,336.697 22.386 C 336.926 21.933,337.055 21.400,336.984 21.201 C 336.913 21.002,337.004 20.839,337.185 20.839 C 337.367 20.839,337.432 20.703,337.329 20.537 C 337.227 20.371,337.273 20.078,337.432 19.886 C 337.592 19.694,337.722 19.437,337.722 19.316 C 337.722 18.592,338.144 16.787,338.314 16.787 C 338.425 16.787,338.540 16.527,338.571 16.208 C 338.688 14.975,338.743 14.761,338.941 14.761 C 339.153 14.761,339.445 13.623,339.682 11.878 C 339.757 11.326,339.976 10.775,340.170 10.652 C 340.363 10.529,340.419 10.427,340.294 10.424 C 340.169 10.422,340.219 10.135,340.405 9.787 C 340.591 9.439,340.805 8.690,340.880 8.123 C 340.955 7.555,341.132 7.048,341.275 6.995 C 341.631 6.862,341.604 5.789,341.245 5.789 C 341.085 5.789,340.988 5.626,341.027 5.427 C 341.100 5.064,323.384 4.767,322.502 5.116 M131.983 5.485 C 131.983 5.671,131.852 5.742,131.693 5.644 C 131.534 5.546,131.402 5.636,131.399 5.844 C 131.305 13.118,131.464 71.068,131.577 71.182 C 131.667 71.272,136.028 71.374,141.269 71.409 L 150.796 71.472 150.796 39.046 C 150.796 17.858,150.695 6.430,150.505 6.075 C 150.230 5.562,149.718 5.530,141.537 5.508 C 136.764 5.495,132.662 5.409,132.421 5.316 C 132.180 5.224,131.983 5.300,131.983 5.485 M62.084 72.066 C 57.159 72.216,57.604 72.240,66.350 72.296 L 76.115 72.359 76.196 83.140 L 76.277 93.922 76.272 82.923 L 76.266 71.925 71.925 71.911 C 69.537 71.904,65.109 71.974,62.084 72.066 M117.330 75.109 C 117.330 76.860,117.378 77.539,117.436 76.618 C 117.493 75.696,117.493 74.264,117.434 73.434 C 117.376 72.604,117.329 73.357,117.330 75.109 M283.672 72.645 C 283.925 72.793,288.265 72.952,293.317 72.998 C 300.683 73.066,302.341 73.013,301.686 72.734 C 300.677 72.303,282.939 72.216,283.672 72.645 M117.311 81.187 C 117.313 82.142,117.367 82.498,117.431 81.977 C 117.496 81.457,117.494 80.676,117.428 80.241 C 117.362 79.806,117.309 80.232,117.311 81.187 M117.349 93.488 C 117.349 98.025,117.389 99.881,117.438 97.612 C 117.487 95.344,117.487 91.632,117.438 89.363 C 117.389 87.095,117.349 88.951,117.349 93.488 M76.214 99.566 C 76.214 100.601,76.267 101.024,76.331 100.507 C 76.395 99.989,76.395 99.143,76.331 98.625 C 76.267 98.108,76.214 98.531,76.214 99.566 M95.224 110.749 C 95.224 129.050,95.484 137.578,96.027 137.127 C 96.382 136.832,96.409 136.115,96.198 132.571 C 96.060 130.258,95.948 121.697,95.948 113.547 C 95.948 102.078,95.866 98.646,95.586 98.366 C 95.297 98.075,95.224 100.552,95.224 110.749 M77.573 107.525 C 77.258 110.240,77.446 128.728,77.786 128.448 C 78.054 128.227,78.138 126.786,78.110 122.902 C 78.064 116.454,77.710 106.341,77.573 107.525 M77.093 136.179 C 77.092 137.612,77.141 138.235,77.201 137.563 C 77.262 136.891,77.263 135.719,77.203 134.958 C 77.143 134.197,77.093 134.747,77.093 136.179 M19.003 181.592 C 18.749 192.031,18.763 202.605,19.030 202.605 C 19.150 202.605,19.247 205.633,19.247 209.334 L 19.247 216.064 27.062 215.997 C 31.360 215.960,35.691 215.852,36.686 215.757 L 38.495 215.583 38.494 194.695 L 38.493 173.806 28.843 173.802 L 19.192 173.798 19.003 181.592 M374.819 184.409 C 372.670 184.509,368.485 184.607,365.520 184.626 L 360.128 184.660 360.010 190.955 C 359.946 194.418,359.771 197.446,359.621 197.685 C 359.472 197.923,359.332 198.249,359.311 198.408 C 359.220 199.095,358.814 200.000,358.596 200.000 C 358.467 200.000,358.273 200.276,358.166 200.614 C 357.911 201.417,355.220 203.977,354.782 203.835 C 354.659 203.795,354.559 203.901,354.559 204.069 C 354.559 204.238,354.428 204.295,354.269 204.197 C 354.110 204.098,353.980 204.164,353.980 204.342 C 353.980 204.520,353.849 204.585,353.690 204.486 C 353.531 204.388,353.401 204.459,353.401 204.645 C 353.401 204.830,353.221 204.913,353.002 204.829 C 352.783 204.745,352.467 204.812,352.301 204.978 C 352.135 205.144,350.809 205.286,349.355 205.292 C 347.219 205.302,346.644 205.398,346.365 205.790 C 345.877 206.477,345.184 206.792,342.547 207.527 C 341.274 207.881,339.515 208.535,338.640 208.978 C 337.764 209.422,336.592 209.922,336.035 210.088 C 335.478 210.255,334.045 210.682,332.851 211.038 C 330.956 211.603,330.470 211.899,329.023 213.368 C 328.112 214.293,327.196 215.051,326.989 215.051 C 326.560 215.051,325.615 216.060,325.615 216.518 C 325.615 216.685,325.485 216.741,325.326 216.643 C 325.166 216.544,325.036 216.582,325.036 216.726 C 325.036 216.870,324.808 217.262,324.530 217.597 C 323.325 219.047,322.976 219.575,322.822 220.188 C 322.732 220.546,322.551 220.839,322.419 220.839 C 322.195 220.839,321.856 221.588,321.862 222.072 C 321.863 222.194,321.663 222.681,321.418 223.155 C 321.173 223.629,320.970 224.081,320.966 224.160 C 320.963 224.238,320.717 224.846,320.420 225.510 C 320.122 226.174,319.941 226.880,320.017 227.078 C 320.093 227.276,320.016 227.524,319.845 227.630 C 319.668 227.739,319.616 228.144,319.723 228.570 C 319.845 229.056,319.805 229.254,319.610 229.133 C 319.222 228.894,319.234 228.663,319.068 239.363 L 318.926 248.480 328.638 248.401 L 338.350 248.321 338.395 241.309 C 338.455 232.121,338.432 232.325,339.630 230.426 C 340.041 229.776,340.376 229.168,340.376 229.075 C 340.376 228.815,342.449 226.918,342.732 226.918 C 342.869 226.918,342.981 226.787,342.981 226.628 C 342.981 226.469,343.177 226.339,343.415 226.339 C 343.654 226.339,343.849 226.208,343.849 226.049 C 343.849 225.890,343.947 225.775,344.067 225.794 C 344.186 225.813,344.381 225.797,344.501 225.758 C 344.620 225.719,344.848 225.655,345.007 225.615 C 345.166 225.575,345.329 225.516,345.369 225.484 C 345.438 225.429,345.642 225.378,347.323 224.999 C 348.519 224.729,350.685 224.826,352.236 225.218 C 352.502 225.285,352.702 225.076,352.764 224.666 C 352.843 224.145,353.603 223.638,356.389 222.247 C 358.327 221.279,360.134 220.293,360.404 220.054 C 360.673 219.816,362.462 218.861,364.379 217.932 C 366.295 217.003,368.484 215.813,369.243 215.287 C 370.159 214.652,370.963 214.330,371.635 214.329 C 372.223 214.328,372.623 214.191,372.589 214.004 C 372.556 213.826,372.849 213.380,373.240 213.013 C 373.631 212.645,373.951 212.177,373.951 211.971 C 373.951 211.766,374.215 211.456,374.538 211.284 C 374.861 211.111,375.057 210.861,374.975 210.727 C 374.893 210.594,375.028 210.317,375.276 210.112 C 375.913 209.583,376.502 208.322,376.334 207.847 C 376.247 207.601,376.318 207.523,376.518 207.647 C 376.833 207.841,376.966 207.491,376.867 206.729 C 376.841 206.530,376.963 206.368,377.139 206.368 C 377.315 206.368,377.378 206.237,377.279 206.078 C 377.181 205.919,377.211 205.789,377.345 205.789 C 377.480 205.789,377.612 205.498,377.639 205.142 C 377.666 204.786,377.825 204.449,377.992 204.393 C 378.159 204.338,378.221 204.171,378.130 204.024 C 378.039 203.876,378.166 203.350,378.413 202.856 C 378.660 202.361,378.803 201.860,378.730 201.743 C 378.658 201.625,378.738 201.088,378.908 200.548 C 379.865 197.515,380.009 184.139,379.084 184.202 C 378.887 184.215,376.968 184.308,374.819 184.409 M168.234 184.587 L 164.689 184.678 164.689 186.247 C 164.689 187.110,164.837 188.142,165.019 188.541 C 165.261 189.071,165.264 189.481,165.031 190.074 C 164.857 190.519,164.686 191.990,164.651 193.343 C 164.617 194.696,164.470 195.960,164.324 196.152 C 164.179 196.344,164.132 196.618,164.220 196.761 C 164.411 197.069,163.437 199.840,162.897 200.525 C 162.688 200.789,162.418 201.137,162.297 201.299 C 161.633 202.177,160.636 203.183,160.628 202.982 C 160.622 202.854,160.427 203.002,160.193 203.311 C 159.960 203.620,159.764 203.751,159.759 203.601 C 159.754 203.451,159.559 203.581,159.325 203.890 C 159.091 204.199,158.898 204.330,158.896 204.180 C 158.893 204.030,158.796 204.057,158.679 204.239 C 158.562 204.422,158.140 204.617,157.742 204.673 C 157.344 204.730,156.940 204.883,156.844 205.013 C 156.748 205.144,155.478 205.265,154.022 205.283 C 152.170 205.305,151.375 205.420,151.375 205.663 C 151.375 206.606,142.373 210.700,140.283 210.707 C 139.994 210.708,139.017 211.101,138.113 211.579 C 137.209 212.058,136.013 212.645,135.456 212.884 C 134.899 213.123,133.987 213.653,133.430 214.061 C 132.873 214.469,132.072 214.872,131.651 214.957 C 131.111 215.065,130.736 215.443,130.377 216.238 C 130.097 216.859,129.751 217.366,129.606 217.366 C 129.462 217.366,129.424 217.236,129.522 217.077 C 129.621 216.918,129.630 216.787,129.543 216.787 C 129.457 216.787,129.195 217.243,128.962 217.800 C 128.729 218.357,128.402 218.813,128.235 218.813 C 128.067 218.813,127.931 218.950,127.931 219.118 C 127.931 219.286,127.611 219.894,127.220 220.469 C 126.829 221.044,126.576 221.623,126.658 221.756 C 126.740 221.889,126.684 221.997,126.534 221.997 C 126.306 221.997,126.117 222.368,125.794 223.444 C 125.770 223.524,125.646 223.754,125.518 223.956 C 125.390 224.157,125.222 224.674,125.144 225.104 C 125.066 225.535,124.880 226.033,124.732 226.212 C 124.584 226.390,124.545 226.619,124.646 226.720 C 124.747 226.821,124.682 227.081,124.502 227.298 C 124.163 227.707,123.859 229.495,123.829 231.259 C 123.820 231.816,123.727 232.337,123.623 232.417 C 123.519 232.496,123.482 235.932,123.541 240.051 L 123.648 247.541 133.242 247.432 L 142.836 247.323 143.005 240.087 C 143.097 236.107,143.238 232.656,143.317 232.417 C 143.593 231.583,144.575 229.666,144.815 229.490 C 144.948 229.393,145.042 229.226,145.024 229.120 C 145.007 229.013,145.614 228.391,146.375 227.737 C 147.135 227.083,147.801 226.434,147.854 226.297 C 147.907 226.159,148.070 226.119,148.216 226.209 C 148.361 226.299,148.480 226.227,148.480 226.049 C 148.480 225.871,148.611 225.806,148.770 225.904 C 148.929 226.003,149.059 225.938,149.059 225.760 C 149.059 225.582,149.190 225.517,149.349 225.615 C 149.508 225.713,149.638 225.670,149.638 225.518 C 149.638 225.366,149.931 225.243,150.289 225.245 C 150.648 225.246,151.331 225.141,151.809 225.011 C 152.287 224.880,153.291 224.799,154.042 224.829 C 155.059 224.871,155.370 224.789,155.262 224.508 C 155.031 223.907,156.160 223.105,157.623 222.832 C 161.342 222.137,170.568 217.737,173.421 215.296 C 175.081 213.877,175.865 213.608,176.498 214.240 C 176.768 214.510,176.922 214.510,177.192 214.240 C 177.384 214.049,177.429 213.893,177.293 213.893 C 177.157 213.893,177.346 213.632,177.713 213.314 C 178.081 212.996,178.276 212.735,178.148 212.735 C 178.019 212.735,178.195 212.492,178.537 212.195 C 178.880 211.897,179.161 211.442,179.161 211.182 C 179.161 210.922,179.299 210.709,179.467 210.709 C 179.636 210.709,179.702 210.594,179.615 210.452 C 179.528 210.311,179.668 210.020,179.927 209.805 C 180.397 209.415,181.361 207.442,181.746 206.082 C 181.897 205.550,181.803 205.243,181.385 204.905 C 180.641 204.302,181.101 203.371,182.360 202.932 C 182.853 202.760,183.174 202.486,183.073 202.323 C 182.972 202.160,182.995 202.026,183.123 202.026 C 183.252 202.026,183.381 201.733,183.409 201.375 C 183.528 199.854,183.669 198.969,183.833 198.698 C 184.076 198.296,184.159 185.488,183.922 184.871 C 183.723 184.354,179.963 184.286,168.234 184.587 M145.297 201.538 C 145.297 201.588,145.720 202.011,146.237 202.478 L 147.178 203.329 146.328 202.388 C 145.535 201.511,145.297 201.314,145.297 201.538 M257.418 227.207 C 257.418 229.038,257.465 229.787,257.522 228.871 C 257.580 227.956,257.580 226.458,257.522 225.543 C 257.465 224.627,257.418 225.376,257.418 227.207 M257.439 241.100 C 257.439 246.751,257.477 249.063,257.525 246.237 C 257.572 243.412,257.572 238.788,257.525 235.962 C 257.477 233.137,257.439 235.449,257.439 241.100 M257.434 259.334 C 257.434 263.394,257.475 265.054,257.525 263.025 C 257.574 260.995,257.574 257.674,257.525 255.644 C 257.475 253.614,257.434 255.275,257.434 259.334 M257.422 270.912 C 257.422 273.061,257.467 273.940,257.523 272.865 C 257.579 271.791,257.579 270.033,257.523 268.958 C 257.467 267.884,257.422 268.763,257.422 270.912 M262.172 275.759 C 263.812 275.810,266.417 275.810,267.960 275.758 C 269.504 275.706,268.162 275.664,264.978 275.664 C 261.795 275.665,260.532 275.707,262.172 275.759 " stroke="none" fill="#2baa51" fill-rule="evenodd"></path><path id="path2" d="M302.598 29.957 C 302.598 43.010,302.634 48.308,302.677 41.729 C 302.721 35.151,302.721 24.471,302.677 17.996 C 302.634 11.521,302.598 16.903,302.598 29.957 M255.644 26.835 L 248.046 26.927 248.046 76.995 C 248.046 126.676,248.051 127.067,248.625 127.641 C 249.524 128.540,265.961 128.540,266.860 127.640 C 267.437 127.064,267.440 126.747,267.367 76.917 L 267.294 26.773 265.268 26.758 C 264.153 26.750,259.823 26.784,255.644 26.835 M213.499 67.952 C 213.382 68.141,216.581 68.257,222.776 68.289 C 227.977 68.315,232.371 68.414,232.541 68.509 C 232.712 68.604,232.683 68.500,232.477 68.279 C 232.013 67.781,213.799 67.467,213.499 67.952 M84.515 94.949 C 84.515 95.113,84.192 95.154,83.760 95.046 C 83.067 94.872,83.032 94.905,83.328 95.459 C 83.608 95.983,83.764 96.022,84.517 95.759 C 85.465 95.429,85.623 95.089,84.949 94.830 C 84.711 94.739,84.515 94.792,84.515 94.949 M90.449 95.224 C 90.547 95.384,90.792 95.514,90.994 95.514 C 91.196 95.514,91.674 95.847,92.057 96.255 C 92.618 96.852,92.978 96.979,93.916 96.911 C 94.922 96.837,95.092 96.911,95.170 97.456 C 95.227 97.853,95.408 98.030,95.658 97.934 C 95.877 97.850,95.986 97.598,95.900 97.374 C 95.814 97.149,95.952 96.886,96.207 96.788 C 96.888 96.526,96.774 96.117,95.930 95.797 C 95.523 95.642,95.270 95.384,95.369 95.225 C 95.467 95.065,95.407 94.935,95.234 94.935 C 95.062 94.935,94.797 95.260,94.645 95.658 C 94.448 96.177,94.155 96.382,93.609 96.382 C 93.141 96.382,92.628 96.103,92.278 95.658 C 91.740 94.975,90.046 94.572,90.449 95.224 M163.041 109.882 C 162.851 109.960,162.748 110.177,162.811 110.366 C 162.875 110.555,163.135 114.682,163.389 119.537 C 163.643 124.392,163.902 128.519,163.964 128.708 C 164.026 128.896,163.951 129.115,163.797 129.193 C 163.643 129.271,163.683 129.300,163.886 129.258 C 164.131 129.207,164.231 128.754,164.183 127.905 C 163.226 110.805,163.205 110.187,163.584 109.947 C 163.989 109.690,163.621 109.646,163.041 109.882 M174.162 111.288 C 174.494 111.766,175.242 112.677,175.825 113.314 L 176.884 114.472 176.027 113.169 C 175.556 112.453,174.807 111.541,174.364 111.143 L 173.559 110.420 174.162 111.288 M180.318 118.470 C 180.318 118.520,180.742 118.943,181.259 119.410 L 182.200 120.260 181.350 119.320 C 180.557 118.443,180.318 118.246,180.318 118.470 M95.514 138.749 C 95.514 139.664,95.680 140.144,96.138 140.548 C 96.760 141.098,96.762 141.097,96.576 140.376 C 96.474 139.978,96.388 139.243,96.386 138.743 C 96.384 138.204,96.205 137.765,95.948 137.667 C 95.603 137.534,95.514 137.758,95.514 138.749 M164.934 153.309 C 164.620 153.687,164.529 156.763,164.464 169.079 L 164.385 184.378 174.160 184.302 L 183.936 184.226 184.001 169.157 C 184.058 156.113,184.007 154.004,183.629 153.463 C 183.033 152.612,165.632 152.468,164.934 153.309 M276.194 157.164 C 276.194 159.631,276.285 163.994,276.395 166.860 C 276.592 171.950,276.598 171.877,276.627 163.676 C 276.644 159.059,276.553 154.696,276.426 153.980 C 276.264 153.069,276.194 154.025,276.194 157.164 M360.310 153.300 C 359.985 153.693,359.913 156.547,359.913 169.147 L 359.913 184.515 368.596 184.428 C 373.372 184.380,377.770 184.271,378.369 184.185 L 379.459 184.029 379.445 168.848 C 379.434 157.591,379.346 153.721,379.102 153.871 C 378.889 154.003,378.835 153.914,378.948 153.617 C 379.235 152.870,378.660 152.822,369.476 152.822 C 361.674 152.822,360.664 152.875,360.310 153.300 M108.319 164.255 L 108.246 174.385 98.553 174.385 L 88.859 174.385 88.858 224.530 C 88.857 274.289,88.861 274.679,89.436 275.253 C 90.105 275.922,107.381 276.185,107.381 275.526 C 107.381 275.357,107.504 275.296,107.656 275.389 C 108.507 275.915,108.539 273.545,108.466 214.272 C 108.425 181.191,108.359 158.683,108.319 164.255 M303.167 214.327 C 303.167 218.944,303.207 220.792,303.256 218.434 C 303.304 216.076,303.304 212.299,303.255 210.040 C 303.207 207.781,303.167 209.711,303.167 214.327 M212.030 213.386 C 211.933 214.541,211.824 218.839,211.788 222.938 L 211.722 230.391 213.218 230.391 C 214.041 230.391,214.891 230.459,215.108 230.542 C 215.371 230.643,215.523 230.442,215.565 229.937 C 215.684 228.496,216.308 228.475,217.834 229.862 C 218.610 230.568,246.492 230.734,246.936 230.035 C 247.422 229.269,247.224 212.244,246.723 211.743 C 246.320 211.340,244.334 211.288,229.237 211.288 L 212.206 211.288 212.030 213.386 M193.761 220.984 C 193.761 225.760,193.800 227.754,193.849 225.416 C 193.897 223.078,193.897 219.170,193.849 216.733 C 193.801 214.295,193.761 216.208,193.761 220.984 M41.592 216.487 C 41.974 216.933,42.166 216.983,42.486 216.718 C 42.829 216.433,42.809 216.347,42.358 216.170 C 41.354 215.775,41.080 215.889,41.592 216.487 M19.297 216.667 C 19.394 216.919,19.554 217.017,19.653 216.884 C 19.752 216.751,19.951 216.545,20.095 216.425 C 20.239 216.306,20.079 216.208,19.739 216.208 C 19.294 216.208,19.170 216.337,19.297 216.667 M257.598 224.006 C 257.598 224.210,259.359 224.314,262.880 224.318 C 265.785 224.321,270.083 224.405,272.431 224.504 C 275.250 224.624,276.700 224.585,276.700 224.391 C 276.700 224.199,273.470 224.078,267.384 224.043 C 262.259 224.014,257.961 223.924,257.832 223.845 C 257.703 223.765,257.598 223.837,257.598 224.006 M164.533 260.926 C 164.533 268.567,164.571 271.652,164.616 267.780 C 164.662 263.909,164.662 257.657,164.616 253.887 C 164.571 250.118,164.533 253.285,164.533 260.926 M359.902 261.071 C 359.902 268.632,359.940 271.726,359.985 267.945 C 360.031 264.164,360.031 257.978,359.985 254.197 C 359.940 250.416,359.902 253.509,359.902 261.071 M360.181 275.218 C 360.268 275.358,360.608 275.543,360.938 275.630 C 361.431 275.759,361.477 275.713,361.197 275.375 C 360.831 274.934,359.918 274.793,360.181 275.218 M28.799 275.547 L 20.984 275.710 29.161 275.754 C 34.113 275.781,37.337 275.691,37.337 275.526 C 37.337 275.376,37.174 275.283,36.975 275.318 C 36.776 275.354,33.097 275.457,28.799 275.547 M369.609 275.543 L 361.650 275.701 369.843 275.767 C 375.248 275.810,377.976 275.734,377.858 275.543 C 377.760 275.384,377.654 275.283,377.624 275.319 C 377.594 275.355,373.987 275.455,369.609 275.543 M167.519 275.755 C 168.199 275.816,169.241 275.815,169.834 275.753 C 170.427 275.691,169.870 275.641,168.596 275.642 C 167.323 275.643,166.838 275.694,167.519 275.755 " stroke="none" fill="#7c245b" fill-rule="evenodd"></path><path id="path3" d="M248.421 5.334 C 248.164 5.631,248.068 8.517,248.053 16.361 L 248.034 26.986 257.664 26.879 C 263.622 26.813,267.375 26.662,267.506 26.483 C 267.891 25.960,267.771 6.526,267.381 6.136 C 267.190 5.945,267.130 5.789,267.247 5.789 C 267.365 5.789,267.293 5.603,267.088 5.376 C 266.542 4.772,248.944 4.733,248.421 5.334 M284.085 5.203 C 283.981 5.371,283.789 5.442,283.657 5.361 C 283.042 4.981,282.720 53.425,283.331 54.384 C 283.632 54.857,301.709 54.702,302.189 54.222 C 302.481 53.930,302.589 5.532,302.298 5.240 C 301.970 4.912,284.288 4.875,284.085 5.203 M169.568 106.300 C 169.129 107.121,168.573 107.670,168.183 107.670 C 168.012 107.670,167.873 107.774,167.873 107.901 C 167.873 108.029,167.417 108.297,166.860 108.499 C 166.302 108.700,165.847 108.965,165.847 109.088 C 165.847 109.210,165.665 109.310,165.444 109.310 C 165.223 109.310,164.620 109.485,164.106 109.698 L 163.170 110.086 163.347 112.713 C 163.445 114.158,163.664 118.140,163.834 121.563 C 164.239 129.674,164.294 129.843,166.320 129.073 C 166.706 128.927,167.441 128.782,167.953 128.752 C 168.466 128.721,169.048 128.573,169.247 128.423 C 169.446 128.272,169.609 128.246,169.609 128.365 C 169.609 128.483,169.808 128.416,170.050 128.214 C 170.293 128.013,170.574 127.931,170.675 128.031 C 170.776 128.132,171.011 128.088,171.197 127.934 C 171.384 127.779,171.808 127.611,172.141 127.560 C 172.474 127.509,173.180 127.256,173.710 126.997 C 174.241 126.738,175.157 126.318,175.747 126.063 C 176.338 125.808,176.900 125.471,176.998 125.313 C 177.095 125.156,177.297 125.102,177.446 125.195 C 177.595 125.287,177.791 125.170,177.881 124.936 C 177.971 124.701,178.328 124.433,178.675 124.339 C 179.022 124.245,179.870 123.647,180.560 123.010 C 181.250 122.373,181.912 121.852,182.030 121.852 C 182.713 121.852,181.858 119.991,180.710 118.981 C 178.849 117.343,173.267 110.350,171.629 107.604 C 170.489 105.694,170.043 105.412,169.568 106.300 M89.516 153.038 L 88.873 153.546 88.937 163.965 L 89.001 174.385 98.624 174.385 L 108.246 174.385 108.247 164.495 C 108.248 159.056,108.317 154.429,108.400 154.212 C 108.483 153.996,108.364 153.562,108.134 153.248 C 107.521 152.408,90.557 152.217,89.516 153.038 M263.169 152.749 C 265.358 152.798,268.940 152.798,271.129 152.749 C 273.318 152.700,271.527 152.660,267.149 152.660 C 262.771 152.660,260.980 152.700,263.169 152.749 M275.933 155.137 C 275.933 156.491,275.983 157.044,276.044 156.368 C 276.105 155.691,276.105 154.584,276.044 153.907 C 275.983 153.231,275.933 153.784,275.933 155.137 M18.943 163.821 C 18.943 169.153,18.982 171.335,19.030 168.669 C 19.078 166.002,19.078 161.639,19.030 158.973 C 18.982 156.306,18.943 158.488,18.943 163.821 M276.238 167.294 C 276.238 169.761,276.282 170.771,276.337 169.537 C 276.391 168.303,276.391 166.284,276.337 165.051 C 276.282 163.817,276.238 164.826,276.238 167.294 M58.533 182.634 C 58.533 183.191,58.593 183.419,58.666 183.140 C 58.738 182.862,58.738 182.406,58.666 182.127 C 58.593 181.849,58.533 182.077,58.533 182.634 M257.597 204.583 C 257.136 204.737,257.208 223.922,257.670 223.945 C 266.822 224.410,302.104 224.295,302.549 223.799 C 303.072 223.218,303.379 205.453,302.875 204.949 C 302.697 204.771,258.115 204.410,257.597 204.583 M194.428 211.488 C 194.150 211.560,193.918 211.773,193.914 211.960 C 193.794 217.025,194.010 229.725,194.222 230.121 C 194.490 230.623,195.090 230.650,204.851 230.614 C 210.540 230.593,214.414 230.528,213.459 230.471 L 211.722 230.367 211.791 227.991 C 211.829 226.684,211.896 222.391,211.940 218.452 L 212.020 211.288 203.478 211.322 C 198.779 211.340,194.707 211.415,194.428 211.488 M37.192 215.959 C 36.556 216.067,32.473 216.189,28.120 216.230 C 22.015 216.288,20.118 216.392,19.822 216.688 C 19.523 216.987,19.411 216.993,19.311 216.712 C 18.915 215.603,18.788 224.719,18.868 248.456 C 18.958 274.917,18.976 275.433,19.829 275.265 C 19.919 275.247,20.192 275.433,20.436 275.677 C 20.916 276.156,36.568 276.373,36.859 275.904 C 36.933 275.785,33.391 275.694,28.989 275.703 L 20.984 275.719 29.088 275.558 C 34.344 275.454,37.267 275.500,37.405 275.687 C 37.524 275.850,37.620 275.747,37.622 275.453 C 37.625 275.165,37.742 275.001,37.883 275.088 C 38.426 275.424,38.487 273.378,38.491 254.776 L 38.495 235.601 40.014 235.578 C 40.850 235.565,41.404 235.500,41.245 235.433 C 40.799 235.245,41.035 219.877,41.510 218.188 C 42.083 216.152,40.590 215.381,37.192 215.959 M19.320 239.291 C 19.274 242.912,19.236 239.949,19.236 232.706 C 19.236 225.463,19.274 222.500,19.320 226.122 C 19.365 229.743,19.365 235.669,19.320 239.291 M225.997 230.608 C 229.709 230.653,235.700 230.653,239.311 230.607 C 242.921 230.562,239.884 230.524,232.562 230.524 C 225.239 230.524,222.285 230.562,225.997 230.608 M379.520 240.719 C 379.457 245.999,379.401 246.574,378.944 246.705 C 378.665 246.784,374.302 246.891,369.248 246.941 L 360.059 247.033 360.058 260.999 C 360.058 273.184,360.113 274.964,360.490 274.964 C 360.727 274.964,361.084 275.224,361.283 275.543 C 361.630 276.099,361.958 276.122,369.771 276.122 L 377.899 276.122 378.821 275.298 L 379.744 274.474 379.667 254.676 C 379.625 243.786,379.559 237.506,379.520 240.719 M164.689 261.035 C 164.689 275.616,164.746 276.367,165.814 275.708 C 165.969 275.612,166.178 275.666,166.278 275.827 C 166.394 276.015,169.421 276.122,174.670 276.122 L 182.881 276.122 183.481 275.359 C 184.069 274.612,184.081 274.320,184.081 260.742 L 184.081 246.889 174.385 246.889 L 164.689 246.889 164.689 261.035 M318.669 261.505 C 318.669 269.706,318.770 274.096,318.958 274.096 C 319.147 274.096,319.247 269.706,319.247 261.505 C 319.247 253.304,319.147 248.915,318.958 248.915 C 318.770 248.915,318.669 253.304,318.669 261.505 M377.858 275.543 C 377.976 275.734,375.248 275.810,369.843 275.767 L 361.650 275.701 369.609 275.543 C 373.987 275.455,377.594 275.355,377.624 275.319 C 377.654 275.283,377.760 275.384,377.858 275.543 M169.834 275.753 C 169.241 275.815,168.199 275.816,167.519 275.755 C 166.838 275.694,167.323 275.643,168.596 275.642 C 169.870 275.641,170.427 275.691,169.834 275.753 " stroke="none" fill="#b33444" fill-rule="evenodd"></path><path id="path4" d="M191.564 67.990 C 191.497 68.184,188.086 68.316,181.766 68.370 L 172.069 68.452 172.003 85.211 L 171.937 101.971 171.086 103.791 C 170.330 105.406,170.284 105.653,170.678 105.980 C 170.922 106.183,171.507 107.030,171.977 107.862 C 172.447 108.695,173.506 110.145,174.332 111.085 C 175.157 112.024,176.418 113.617,177.135 114.625 C 177.851 115.632,179.316 117.333,180.391 118.405 C 181.969 119.979,182.344 120.527,182.344 121.257 C 182.344 121.829,182.519 122.227,182.821 122.343 C 183.084 122.444,183.651 122.895,184.083 123.347 C 184.514 123.798,185.016 124.168,185.198 124.168 C 185.380 124.168,185.528 124.298,185.528 124.457 C 185.528 124.616,185.724 124.747,185.962 124.747 C 186.201 124.747,186.397 124.868,186.397 125.017 C 186.397 125.165,186.690 125.376,187.048 125.485 C 187.406 125.594,187.919 125.876,188.187 126.112 C 188.456 126.347,188.803 126.461,188.958 126.365 C 189.114 126.269,189.286 126.325,189.341 126.490 C 189.483 126.914,194.362 128.518,196.093 128.708 C 196.889 128.796,197.670 128.967,197.829 129.089 C 197.988 129.210,199.175 129.330,200.466 129.354 L 202.814 129.399 202.387 126.711 C 202.005 124.309,202.010 123.391,202.431 118.090 C 202.691 114.826,202.901 111.606,202.899 110.933 L 202.894 109.709 201.228 109.733 C 199.662 109.755,196.860 108.818,196.575 108.177 C 196.522 108.057,196.364 107.959,196.224 107.959 C 195.677 107.959,193.584 105.412,192.776 103.763 L 191.925 102.026 191.904 84.967 C 191.885 69.157,191.845 67.174,191.564 67.990 " stroke="none" fill="#558bc2" fill-rule="evenodd"></path><path id="path5" d="M135.456 5.414 C 143.074 5.619,149.861 5.625,149.739 5.427 C 149.665 5.308,145.737 5.238,141.010 5.271 C 136.284 5.305,133.784 5.370,135.456 5.414 M131.264 55.572 L 131.283 104.052 132.075 106.946 C 132.975 110.233,134.559 113.744,136.349 116.413 C 137.558 118.216,142.899 123.767,143.167 123.499 C 143.244 123.423,143.632 123.662,144.029 124.030 C 147.797 127.522,164.891 131.526,163.960 128.698 C 163.900 128.515,163.643 124.392,163.389 119.537 C 162.848 109.197,163.009 109.987,161.442 109.981 C 157.058 109.965,153.178 107.503,151.438 103.633 C 150.559 101.677,150.636 103.247,150.565 85.818 L 150.506 71.346 142.185 71.407 C 137.609 71.441,133.311 71.394,132.635 71.302 L 131.406 71.136 131.326 39.113 C 131.282 21.501,131.254 28.907,131.264 55.572 M107.381 70.333 L 97.974 70.478 97.810 86.686 C 97.669 100.594,97.579 103.079,97.178 104.197 L 96.710 105.499 96.691 102.012 C 96.678 99.709,96.554 98.406,96.324 98.177 C 95.802 97.654,95.415 97.753,95.699 98.336 C 95.835 98.614,95.947 105.485,95.947 113.603 C 95.948 121.722,96.061 130.269,96.199 132.596 C 96.380 135.645,96.360 136.883,96.127 137.027 C 95.664 137.313,95.727 137.771,96.230 137.771 C 96.583 137.771,96.670 137.022,96.736 133.400 L 96.816 129.029 98.037 128.617 C 106.750 125.674,113.676 117.740,116.574 107.381 C 117.377 104.508,117.454 79.957,116.661 79.402 C 115.909 78.874,115.903 78.547,116.643 78.353 C 117.243 78.196,117.558 71.238,117.000 70.478 C 116.862 70.290,113.486 70.239,107.381 70.333 M56.729 87.812 C 56.729 109.640,57.822 113.892,65.412 121.587 C 70.019 126.257,76.964 130.012,77.445 128.093 C 77.902 126.275,77.349 105.533,76.809 104.197 C 76.328 103.006,76.274 101.582,76.186 87.627 L 76.089 72.359 66.409 72.359 L 56.729 72.359 56.729 87.812 M283.188 72.914 C 283.122 72.980,283.068 85.131,283.068 99.917 L 283.068 126.799 283.778 127.510 L 284.489 128.220 292.838 128.220 C 298.945 128.220,301.280 128.127,301.534 127.873 C 301.725 127.682,301.882 127.649,301.883 127.800 C 301.884 127.952,302.079 127.702,302.317 127.246 C 302.692 126.528,302.750 122.852,302.750 99.835 L 302.750 73.253 301.809 73.093 C 300.702 72.904,283.364 72.737,283.188 72.914 M319.070 183.676 C 318.551 185.741,319.188 200.122,319.908 202.605 C 321.228 207.159,322.845 210.424,325.322 213.531 C 326.836 215.432,326.998 215.425,329.023 213.368 C 330.470 211.899,330.956 211.603,332.851 211.038 C 334.045 210.682,335.478 210.255,336.035 210.088 C 336.592 209.922,337.764 209.422,338.640 208.978 C 339.515 208.535,341.264 207.883,342.526 207.530 C 347.099 206.250,347.555 205.641,344.815 204.477 C 339.672 202.291,338.535 199.767,338.402 190.242 L 338.299 182.944 328.773 182.956 L 319.247 182.968 319.070 183.676 M123.309 189.074 C 123.326 200.080,124.408 204.860,128.371 211.433 C 130.678 215.258,131.632 215.607,134.202 213.565 C 134.776 213.108,135.413 212.735,135.616 212.735 C 135.820 212.735,136.846 212.279,137.896 211.722 C 138.946 211.165,140.032 210.708,140.308 210.707 C 141.427 210.703,147.396 208.416,149.319 207.254 C 151.608 205.871,151.813 205.443,150.434 204.930 C 144.360 202.668,142.981 199.897,142.981 189.946 L 142.981 183.213 133.140 183.213 L 123.300 183.213 123.309 189.074 M164.592 184.563 C 164.486 184.670,164.422 187.112,164.449 189.990 C 164.495 194.823,164.517 195.024,164.737 192.619 C 165.020 189.508,165.025 189.132,164.808 186.623 L 164.640 184.678 168.210 184.587 L 171.780 184.496 168.283 184.433 C 166.359 184.399,164.699 184.457,164.592 184.563 M366.208 184.585 C 367.283 184.641,369.041 184.641,370.116 184.585 C 371.190 184.529,370.311 184.484,368.162 184.484 C 366.013 184.484,365.134 184.529,366.208 184.585 M359.889 190.159 C 359.889 193.104,359.932 194.309,359.984 192.836 C 360.037 191.364,360.037 188.954,359.984 187.482 C 359.932 186.009,359.889 187.214,359.889 190.159 M181.476 203.473 C 180.754 204.196,180.747 204.532,181.447 204.970 C 181.769 205.170,181.930 205.502,181.835 205.768 C 181.746 206.018,181.763 206.143,181.873 206.045 C 182.233 205.724,182.319 204.631,181.984 204.631 C 181.804 204.631,181.941 204.365,182.290 204.041 C 182.638 203.716,182.923 203.326,182.923 203.173 C 182.923 202.694,182.081 202.869,181.476 203.473 M130.037 216.281 C 129.502 216.972,129.345 217.366,129.604 217.366 C 129.747 217.366,130.012 217.041,130.193 216.643 C 130.550 215.859,130.483 215.704,130.037 216.281 M257.598 249.650 C 257.598 269.559,257.675 275.078,257.959 275.346 C 258.671 276.017,276.075 275.811,276.578 275.126 C 276.927 274.650,276.990 270.745,276.990 249.608 L 276.990 224.653 273.734 224.535 C 271.943 224.470,267.580 224.389,264.038 224.355 L 257.598 224.294 257.598 249.650 M123.424 240.955 C 123.424 244.616,123.465 246.074,123.516 244.195 C 123.566 242.315,123.566 239.320,123.515 237.538 C 123.465 235.756,123.423 237.294,123.424 240.955 " stroke="none" fill="#1c8c64" fill-rule="evenodd"></path><path id="path6" d="M136.704 5.137 C 139.061 5.186,142.839 5.186,145.097 5.137 C 147.356 5.088,145.427 5.048,140.810 5.048 C 136.194 5.048,134.346 5.088,136.704 5.137 M177.786 5.137 C 180.134 5.186,183.976 5.186,186.324 5.137 C 188.672 5.088,186.751 5.048,182.055 5.048 C 177.359 5.048,175.438 5.088,177.786 5.137 M214.327 5.255 C 212.973 5.995,213.025 4.724,213.025 37.428 C 213.025 64.804,213.074 68.336,213.456 68.020 C 213.938 67.619,231.551 67.737,232.489 68.147 C 232.970 68.357,232.996 66.778,232.996 37.244 L 232.996 6.120 232.233 5.520 C 231.347 4.824,215.544 4.589,214.327 5.255 M130.966 52.677 C 130.966 78.227,131.000 88.679,131.042 75.904 C 131.084 63.130,131.084 42.225,131.042 29.450 C 131.000 16.675,130.966 27.127,130.966 52.677 M267.580 76.556 C 267.580 104.255,267.614 115.543,267.656 101.641 C 267.697 87.739,267.697 65.077,267.656 51.280 C 267.614 37.482,267.580 48.857,267.580 76.556 M303.690 53.758 C 304.446 53.818,305.684 53.818,306.440 53.758 C 307.196 53.699,306.577 53.650,305.065 53.650 C 303.553 53.650,302.934 53.699,303.690 53.758 M150.641 85.528 C 150.641 93.329,150.678 96.478,150.723 92.527 C 150.769 88.576,150.769 82.194,150.723 78.345 C 150.678 74.495,150.640 77.728,150.641 85.528 M116.570 78.347 C 115.976 78.502,115.930 78.766,116.411 79.247 C 116.985 79.822,117.511 79.642,117.511 78.871 C 117.511 78.137,117.468 78.113,116.570 78.347 M323.148 105.355 C 323.148 117.214,323.183 122.066,323.227 116.136 C 323.271 110.206,323.271 100.503,323.227 94.573 C 323.183 88.643,323.148 93.495,323.148 105.355 M76.219 95.803 C 76.219 96.997,76.270 97.486,76.332 96.889 C 76.395 96.292,76.395 95.315,76.332 94.718 C 76.270 94.121,76.219 94.609,76.219 95.803 M91.761 94.863 C 91.845 96.770,94.935 96.681,94.935 94.771 C 94.935 94.702,94.219 94.645,93.343 94.645 C 92.467 94.645,91.755 94.743,91.761 94.863 M95.952 96.955 C 95.783 97.227,96.259 98.408,96.537 98.408 C 96.611 98.408,96.671 98.017,96.671 97.540 C 96.671 96.691,96.301 96.390,95.952 96.955 M131.187 102.605 C 131.191 103.242,131.250 103.468,131.319 103.108 C 131.388 102.748,131.386 102.227,131.313 101.950 C 131.241 101.674,131.184 101.968,131.187 102.605 M96.671 104.631 C 96.671 105.029,96.721 105.355,96.782 105.355 C 96.844 105.355,96.956 105.029,97.032 104.631 C 97.108 104.233,97.058 103.907,96.921 103.907 C 96.784 103.907,96.671 104.233,96.671 104.631 M65.268 121.852 C 65.890 122.489,66.463 123.010,66.543 123.010 C 66.623 123.010,66.179 122.489,65.557 121.852 C 64.935 121.216,64.362 120.695,64.282 120.695 C 64.202 120.695,64.646 121.216,65.268 121.852 M96.461 138.929 C 96.461 139.645,96.517 139.938,96.586 139.580 C 96.655 139.222,96.655 138.636,96.586 138.278 C 96.517 137.920,96.461 138.213,96.461 138.929 M77.087 140.666 C 77.087 141.860,77.138 142.348,77.201 141.751 C 77.263 141.154,77.263 140.177,77.201 139.580 C 77.138 138.983,77.087 139.472,77.087 140.666 M124.609 152.739 C 123.318 153.080,123.318 153.079,123.309 168.524 L 123.300 183.213 133.140 183.213 L 142.981 183.213 142.981 168.507 C 142.981 156.269,142.912 153.707,142.571 153.239 C 142.167 152.686,126.464 152.248,124.609 152.739 M170.278 152.749 C 172.636 152.798,176.413 152.798,178.672 152.749 C 180.931 152.700,179.001 152.660,174.385 152.660 C 169.768 152.660,167.920 152.700,170.278 152.749 M275.577 152.733 C 276.604 152.896,276.695 153.825,276.698 164.182 L 276.700 172.504 293.443 172.504 C 309.295 172.504,310.211 172.475,310.664 171.974 C 311.450 171.107,311.383 154.340,310.590 153.361 L 310.037 152.677 292.428 152.645 C 282.743 152.627,275.160 152.667,275.577 152.733 M319.921 152.728 C 318.702 152.977,318.666 153.651,318.730 175.079 C 318.767 187.594,318.857 193.102,318.961 189.291 C 319.055 185.868,319.158 183.045,319.190 183.018 C 319.221 182.990,323.513 182.962,328.726 182.956 L 338.205 182.946 338.280 168.211 C 338.349 154.776,338.313 153.441,337.875 153.077 C 337.406 152.687,321.621 152.380,319.921 152.728 M365.647 152.749 C 368.005 152.798,371.782 152.798,374.041 152.749 C 376.300 152.700,374.370 152.660,369.754 152.660 C 365.137 152.660,363.289 152.700,365.647 152.749 M379.585 169.609 C 379.585 178.126,379.622 181.610,379.667 177.352 C 379.712 173.093,379.712 166.125,379.667 161.867 C 379.622 157.609,379.585 161.093,379.585 169.609 M18.934 178.726 C 18.934 181.751,18.977 182.949,19.029 181.389 C 19.081 179.828,19.081 177.354,19.029 175.889 C 18.976 174.425,18.934 175.702,18.934 178.726 M58.598 194.645 C 58.598 200.854,58.636 203.352,58.683 200.198 C 58.730 197.043,58.729 191.964,58.683 188.910 C 58.636 185.856,58.598 188.437,58.598 194.645 M18.941 210.854 C 18.941 215.470,18.981 217.318,19.030 214.961 C 19.079 212.603,19.078 208.826,19.030 206.567 C 18.981 204.308,18.941 206.237,18.941 210.854 M181.910 204.342 C 181.812 204.501,181.877 204.631,182.055 204.631 C 182.233 204.631,182.286 204.781,182.172 204.965 C 182.044 205.172,182.093 205.221,182.300 205.093 C 182.700 204.845,182.747 204.052,182.362 204.052 C 182.212 204.052,182.009 204.182,181.910 204.342 M247.306 220.984 C 247.306 225.760,247.346 227.754,247.394 225.416 C 247.443 223.078,247.443 219.170,247.395 216.733 C 247.346 214.295,247.306 216.208,247.306 220.984 M215.784 229.003 C 215.714 229.209,215.618 229.638,215.571 229.957 C 215.487 230.519,215.205 230.540,205.355 230.686 C 199.783 230.768,206.621 230.835,220.550 230.833 C 234.479 230.832,239.760 230.796,232.285 230.753 L 218.694 230.674 217.958 229.989 C 216.845 228.953,215.940 228.543,215.784 229.003 M318.794 241.968 C 318.794 245.868,318.835 247.464,318.885 245.514 C 318.935 243.564,318.935 240.373,318.885 238.423 C 318.835 236.473,318.794 238.068,318.794 241.968 M107.381 275.587 C 107.381 275.717,103.441 275.860,98.625 275.905 L 89.870 275.986 98.570 276.054 C 105.448 276.107,107.381 276.041,107.798 275.736 C 108.255 275.401,108.262 275.350,107.853 275.350 C 107.593 275.350,107.381 275.456,107.381 275.587 M262.735 276.049 C 265.163 276.097,269.135 276.097,271.563 276.049 C 273.991 276.000,272.004 275.961,267.149 275.961 C 262.294 275.961,260.308 276.000,262.735 276.049 " stroke="none" fill="#040404" fill-rule="evenodd"></path></g></svg>