<svg id="svg" xmlns="http://www.w3.org/2000/svg" xmlns:xlink="http://www.w3.org/1999/xlink" width="400" height="289.4217207334274" viewBox="0, 0, 400,289.4217207334274"><g id="svgg"><path id="path0" d="M251.622 8.754 C 174.813 18.267,128.585 102.326,162.751 170.355 L 165.198 175.227 92.613 220.849 C 52.691 245.942,19.709 266.759,19.320 267.110 C 18.618 267.742,25.978 280.395,27.048 280.395 C 27.281 280.395,60.177 259.817,100.149 234.665 C 140.122 209.514,172.991 188.886,173.193 188.826 C 173.394 188.766,174.780 190.240,176.273 192.102 C 228.447 257.194,330.951 245.493,367.266 170.299 C 405.899 90.306,339.709 -2.155,251.622 8.754 M275.199 20.344 C 346.175 28.086,387.440 103.100,355.716 166.714 C 318.379 241.584,210.826 241.250,174.070 166.150 C 139.105 94.709,196.629 11.773,275.199 20.344 M257.655 64.112 C 257.440 64.328,257.264 75.503,257.264 88.946 L 257.264 113.387 232.581 113.534 L 207.898 113.681 207.741 121.439 L 207.585 129.196 232.424 129.196 L 257.264 129.196 257.264 154.036 L 257.264 178.875 265.021 178.718 L 272.779 178.561 272.926 153.885 L 273.073 129.208 297.749 129.061 L 322.426 128.914 322.426 121.298 L 322.426 113.681 297.749 113.534 L 273.073 113.387 272.926 88.711 L 272.779 64.034 265.413 63.877 C 261.362 63.791,257.871 63.897,257.655 64.112 " stroke="none" fill="#000000" fill-rule="evenodd"></path></g></svg>